<?xml version="1.0" standalone="no"?>
<!DOCTYPE svg PUBLIC "-//W3C//DTD SVG 1.1//EN" "http://www.w3.org/Graphics/SVG/1.1/DTD/svg11.dtd">
<svg xmlns="http://www.w3.org/2000/svg">
<defs >
<font id="SometypeMono" horiz-adv-x="580" ><font-face
    font-family="Sometype Mono Medium"
    units-per-em="1000"
    panose-1="2 11 0 9 2 2 3 3 2 4"
    ascent="925"
    descent="-275"
    alphabetic="0" />
<glyph unicode=" " />
<glyph unicode="!" d="M278 223L300 595L311 650H445L434 595L297 223H278ZM247 -12Q218 -12 199 7T179 56Q179 89 202 112T258 135Q288 135 307 116T326 67Q326 34 304 11T247 -12Z" />
<glyph unicode="&quot;" d="M177 363L201 650H322L224 363H177ZM411 363L435 650H556L459 363H411Z" />
<glyph unicode="#" d="M52 0L119 174H8L33 240H144L210 409H98L123 475H235L295 630H368L308 475H427L486 630H559L499 475H610L584 409H473L408 240H520L495 174H383L315 0H243L310 174H192L124 0H52ZM217 240H336L401 409H282L217 240Z" />
<glyph unicode="$" d="M184 -82L216 20Q96 31 28 97L80 169Q141 114 237 107L274 279L244 283Q114 305 114 423Q114 505 176 556T342 611L354 712H442L409 609Q501 598 565 552L519 474Q464 515 388 523L353 356L386 350Q514 329 514 211Q514 127 453 76T284 19L272
-82H184ZM300 107Q358 112 390 136T422 198Q422 230 403 245T334 268L300 107ZM292 365L326 524Q270 520 239 496T207 435Q207 404 225 389T292 365Z" />
<glyph unicode="%" d="M186 338Q132 338 101 369T70 453Q70 508 91 550T150 617T233 642Q287 642 318 611T349 527Q349 473 328 430T270 363T186 338ZM187 402Q225 402 251 437T278 526Q278 579 233 579Q194 579 168 543T141 454Q141 402 187 402ZM392 362L357
399L591 637L642 584L392 362ZM23 -7L-28 46L221 268L256 231L23 -7ZM380 -13Q326 -13 295 18T264 103Q264 157 285 199T344 266T428 291Q482 291 513 260T544 176Q544 122 523 80T464 12T380 -13ZM381 51Q420 51 446 86T473 176Q473 228 427 228Q388 228 362 192T335
103Q335 51 381 51Z" />
<glyph unicode="&amp;" d="M165 -12Q92 -12 49 30T6 142Q6 215 43 265T159 354V357Q140 389 131 416T122 471Q122 558 175 610T318 662Q389 662 430 627T471 530Q471 465 432 420T300 334L290 329V327L378 202Q400 232 424 271T476 363L546 323Q508 260 478 216T422
141L520 0H407L357 72Q312 28 265 8T165 -12ZM182 72Q216 72 248 86T315 133L203 292Q99 248 99 151Q99 115 121 94T182 72ZM246 389L278 403Q335 426 359 453T384 521Q384 549 365 566T312 583Q266 583 238 555T210 480Q210 460 218 440T246 389Z" />
<glyph unicode="&apos;" d="M283 313L313 650H444L331 313H283Z" />
<glyph unicode="(" d="M360 -222Q286 -201 233 -151T152 -28T124 134Q124 244 155 342T245 519T381 651T553 722L539 650Q467 631 406 582T300 463T230 307T205 127Q205 20 248 -53T372 -155L360 -222Z" />
<glyph unicode=")" d="M33 -222L47 -150Q119 -130 180 -82T286 37T356 193T381 373Q381 481 338 553T214 655L226 722Q300 701 353 651T434 529T462 366Q462 256 431 158T341 -19T205 -150T33 -222Z" />
<glyph unicode="*" d="M288 22L204 39L261 234L74 157L48 239L244 286L84 410L142 474L281 327L309 528L393 511L336 316L523 393L549 311L353 264L513 140L455 76L316 223L288 22Z" />
<glyph unicode="+" d="M209 36L251 238H50L67 315H269L312 516H388L346 315H547L530 238H328L285 36H209Z" />
<glyph unicode="," d="M104 -189L93 -136Q146 -126 187 -91T243 -7Q213 -7 194 11T174 60Q174 94 197 121T261 148Q293 148 313 128T334 67Q334 27 316 -14T266 -91T192 -154T104 -189Z" />
<glyph unicode="-" d="M91 240L106 313H506L491 240H91Z" />
<glyph unicode="." d="M248 -12Q215 -12 195 9T175 61Q175 94 198 121T260 148Q293 148 313 128T334 75Q334 43 311 16T248 -12Z" />
<glyph unicode="/" d="M-13 -60L535 710H631L82 -60H-13Z" />
<glyph unicode="0" d="M253 -12Q155 -12 104 42T52 201Q52 256 63 316T97 434T156 539T243 614T361 642Q459 642 510 588T561 429Q561 375 550 315T517 196T458 92T371 17T253 -12ZM257 74Q302 74 336 96T395 156T435 237T458 326T468 407L154 140Q177 74 257
74ZM146 223L460 490Q437 556 357 556Q312 556 277 534T218 474T179 393T155 304T146 223Z" />
<glyph unicode="1" d="M11 0L29 84H213L301 495L135 396L102 452L360 636H423L305 84H490L472 0H11Z" />
<glyph unicode="2" d="M21 0L37 75Q54 156 83 209T159 294T275 343L364 365Q417 378 441 404T465 474Q465 556 356 556Q262 556 178 491L136 564Q192 605 246 623T363 642Q456 642 506 601T557 483Q557 400 514 350T374 277L284 255Q240 244 211 225T163 172T132
84H477L459 0H21Z" />
<glyph unicode="3" d="M17 -12L30 72Q169 73 253 87T376 134T415 220Q415 252 388 265T293 278H176L194 362H275Q359 362 403 392T448 478Q448 556 342 556Q295 556 252 543T167 502L128 575Q232 642 354 642Q445 642 494 605T543 497Q543 438 515 400T428 338V335Q509
311 509 226Q509 140 461 88T304 13T17 -12Z" />
<glyph unicode="4" d="M299 0L329 143H13L28 213L371 630H479L149 226H347L388 422L491 474L439 226H547L529 143H421L391 0H299Z" />
<glyph unicode="5" d="M15 -12L27 72Q165 73 250 89T374 140T413 231Q413 297 318 297Q240 297 164 259L95 287L207 630H569L551 546H265L202 354Q269 383 342 383Q420 383 463 346T506 242Q506 151 457 96T300 15T15 -12Z" />
<glyph unicode="6" d="M268 -12Q170 -12 115 45T59 206Q59 412 189 525T562 642L556 558Q238 553 171 336H174Q251 403 345 403Q426 403 472 359T518 236Q518 164 487 108T399 20T268 -12ZM269 74Q315 74 350 94T406 149T426 228Q426 271 400 294T325 318Q230
318 152 234Q151 226 151 219T150 204Q150 141 181 108T269 74Z" />
<glyph unicode="7" d="M106 0Q168 167 262 297T479 544H127L145 630H602L581 537Q452 416 359 287T210 0H106Z" />
<glyph unicode="8" d="M560 496Q560 439 531 396T439 320V318Q520 273 520 194Q520 131 489 85T399 13T261 -12Q152 -12 92 29T31 143Q31 208 66 253T181 335V337Q120 380 120 448Q120 507 149 550T232 618T357 642Q452 642 506 603T560 496ZM348 556Q287 556
251 530T215 460Q215 416 280 388L356 355Q412 379 439 410T466 483Q466 518 435 537T348 556ZM270 74Q341 74 383 104T426 183Q426 230 363 255L262 297Q192 270 159 236T126 157Q126 117 163 96T270 74Z" />
<glyph unicode="9" d="M52 -12L58 72Q376 77 443 294H440Q363 227 269 227Q189 227 143 272T96 394Q96 467 127 522T216 610T346 642Q444 642 499 585T555 424Q555 219 425 106T52 -12ZM289 312Q384 312 462 396Q463 404 463 411T464 426Q464 489 433 522T345
556Q300 556 264 536T208 482T188 402Q188 359 214 336T289 312Z" />
<glyph unicode=":" d="M319 324Q286 324 266 345T246 397Q246 430 269 457T331 484Q364 484 384 464T405 411Q405 379 382 352T319 324ZM248 -12Q215 -12 195 9T175 61Q175 94 198 121T260 148Q293 148 313 128T334 75Q334 43 311 16T248 -12Z" />
<glyph unicode=";" d="M104 -189L93 -136Q146 -126 187 -91T243 -7Q213 -7 194 11T174 60Q174 94 197 121T261 148Q293 148 313 128T334 67Q334 27 316 -14T266 -91T192 -154T104 -189ZM319 324Q286 324 266 345T246 397Q246 430 269 457T331 484Q364 484 384
464T405 411Q405 379 382 352T319 324Z" />
<glyph unicode="&lt;" d="M440 0L80 245L94 308L558 552L538 455L183 269L458 83L440 0Z" />
<glyph unicode="=" d="M83 345L100 422H560L543 345H83ZM37 131L54 208H514L497 131H37Z" />
<glyph unicode="&gt;" d="M39 0L59 97L414 283L139 469L157 552L517 308L503 245L39 0Z" />
<glyph unicode="?" d="M209 223Q209 312 235 352T322 403L377 412Q431 421 453 441T476 500Q476 538 446 557T352 576Q302 576 258 562T170 518L127 592Q183 629 237 645T356 662Q459 662 513 621T568 503Q568 429 529 388T404 333L348 324Q314 318 301 297T288
223H209ZM215 -12Q185 -12 166 7T147 56Q147 89 169 112T225 135Q255 135 274 116T293 67Q293 34 271 11T215 -12Z" />
<glyph unicode="@" d="M272 -46Q153 -46 91 17T28 204Q28 304 56 388T133 533T250 628T395 662Q497 662 547 622T597 506Q597 476 590 445L530 165H470L471 212Q436 183 403 169T332 154Q270 154 233 188T195 285Q195 362 244 404T382 446H509Q512 463 513 474T515
495Q515 542 486 564T394 586Q335 586 284 558T194 478T133 359T111 210Q111 30 275 30Q354 30 428 73L453 1Q408 -23 364 -34T272 -46ZM350 231Q384 231 415 245T475 290L494 377H385Q335 377 307 355T279 295Q279 263 297 247T350 231Z" />
<glyph unicode="A" d="M-27 0L327 650H429L506 0H414L396 166H159L69 0H-27ZM204 252H387L356 537L204 252Z" />
<glyph unicode="B" d="M32 0L170 650H392Q565 650 565 521Q565 375 439 339V337Q519 308 519 221Q519 115 457 58T282 0H32ZM143 86H285Q354 86 389 119T425 215Q425 255 398 273T312 292H187L143 86ZM204 377H322Q397 377 433 407T469 501Q469 534 446 549T371
564H244L204 377Z" />
<glyph unicode="C" d="M297 -12Q186 -12 128 47T69 218Q69 275 81 337T118 456T182 560T277 634T405 662Q464 662 507 645T585 590L527 522Q477 575 400 575Q348 575 309 552T241 491T196 407T171 314T162 225Q162 75 302 75Q343 75 379 89T456 137L503 66Q453
26 403 7T297 -12Z" />
<glyph unicode="D" d="M28 0L166 650H322Q438 650 498 593T558 424Q558 350 539 275T479 138T371 38T207 0H28ZM138 86H209Q283 86 332 116T410 195T452 302T465 415Q465 492 426 528T305 564H240L138 86Z" />
<glyph unicode="E" d="M51 0L190 650H602L583 564H263L223 374H495L477 288H205L162 86H482L463 0H51Z" />
<glyph unicode="F" d="M56 0L195 650H606L588 564H268L227 368H498L480 283H208L148 0H56Z" />
<glyph unicode="G" d="M260 -12Q163 -12 111 48T58 217Q58 275 69 336T106 456T170 560T265 634T394 662Q508 662 575 590L516 523Q490 551 460 563T391 575Q338 575 298 552T230 491T185 405T159 311T151 222Q151 75 283 75Q345 75 400 116L435 281H313L331 366H545L468
0H408L409 45Q374 15 338 2T260 -12Z" />
<glyph unicode="H" d="M21 0L159 650H251L193 374H446L505 650H597L459 0H367L428 288H174L113 0H21Z" />
<glyph unicode="I" d="M28 0L47 86H212L313 564H148L166 650H590L571 564H405L304 86H470L451 0H28Z" />
<glyph unicode="J" d="M224 -12Q161 -12 114 8T28 75L88 141Q117 107 150 91T225 75Q288 75 329 109T384 207L460 564H237L256 650H571L473 192Q452 92 389 40T224 -12Z" />
<glyph unicode="K" d="M24 0L162 650H254L188 337L517 650H638L360 389L502 0H403L287 319L159 199L116 0H24Z" />
<glyph unicode="L" d="M56 0L195 650H287L167 86H486L468 0H56Z" />
<glyph unicode="M" d="M11 0L150 650H263L293 275L483 650H606L468 0H382L493 523L293 130H236L204 523L93 0H11Z" />
<glyph unicode="N" d="M21 0L159 650H266L409 166L512 650H597L459 0H371L217 523L106 0H21Z" />
<glyph unicode="O" d="M253 -12Q47 -12 47 206Q47 261 58 323T92 445T153 555T242 633T364 662Q570 662 570 445Q570 389 559 327T525 205T464 96T375 18T253 -12ZM257 75Q305 75 341 100T403 166T445 255T469 352T476 438Q476 575 360 575Q312 575 276 550T214
484T172 395T149 298T141 212Q141 75 257 75Z" />
<glyph unicode="P" d="M35 0L174 650H406Q493 650 538 613T583 504Q583 393 520 332T340 270H185L128 0H35ZM204 356H343Q489 356 489 492Q489 530 464 547T383 564H248L204 356Z" />
<glyph unicode="Q" d="M344 -222Q271 -222 233 -188T194 -86Q194 -71 196 -55T205 -9Q126 4 87 58T47 206Q47 261 58 323T92 445T153 555T242 633T364 662Q570 662 570 445Q570 393 561 335T531 221T479 116T402 35T297 -8Q292 -36 290 -49T288 -73Q288 -105 304
-121T355 -137Q404 -137 457 -109L482 -187Q450 -205 417 -213T344 -222ZM257 75Q305 75 341 100T403 166T445 255T469 352T476 438Q476 575 360 575Q312 575 276 550T214 484T172 395T149 298T141 212Q141 75 257 75Z" />
<glyph unicode="R" d="M30 0L169 650H394Q479 650 523 613T568 507Q568 412 520 353T383 282L490 0H390L288 277H182L123 0H30ZM200 363H333Q474 363 474 494Q474 531 450 547T372 564H243L200 363Z" />
<glyph unicode="S" d="M254 -12Q181 -12 124 10T26 76L85 145Q120 109 162 92T263 75Q336 75 376 107T417 197Q417 230 400 250T343 280L250 304Q186 320 154 358T122 452Q122 516 152 563T237 636T369 662Q490 662 572 592L518 520Q453 575 362 575Q292 575 254
546T216 466Q216 436 233 418T290 390L383 366Q447 349 479 311T511 211Q511 107 443 48T254 -12Z" />
<glyph unicode="T" d="M194 0L313 564H104L122 650H634L615 564H405L286 0H194Z" />
<glyph unicode="U" d="M248 -12Q155 -12 107 30T58 149Q58 163 59 178T64 209L159 650H251L158 213Q155 201 154 189T152 167Q152 75 257 75Q385 75 415 213L507 650H597L502 199Q479 95 415 42T248 -12Z" />
<glyph unicode="V" d="M189 0L121 650H214L266 126L539 650H635L291 0H189Z" />
<glyph unicode="W" d="M57 0L94 650H180L150 158L322 579H404L398 157L577 650H662L421 0H327L333 435L155 0H57Z" />
<glyph unicode="X" d="M-6 0L262 337L142 650H243L329 410L516 650H623L361 322L484 0H384L295 250L101 0H-6Z" />
<glyph unicode="Y" d="M193 0L254 284L113 650H215L317 370L536 650H643L343 274L285 0H193Z" />
<glyph unicode="Z" d="M17 0L31 66L453 564H152L171 650H598L584 584L163 86H478L460 0H17Z" />
<glyph unicode="[" d="M59 -210L254 710H569L554 639H320L155 -139H389L374 -210H59Z" />
<glyph unicode="\" d="M379 -60L158 710H239L459 -60H379Z" />
<glyph unicode="]" d="M16 -210L31 -139H265L430 639H196L212 710H527L331 -210H16Z" />
<glyph unicode="^" d="M52 274L338 636H410L541 274H460L363 546L150 274H52Z" />
<glyph unicode="_" d="M-80 -142L-65 -68H515L500 -142H-80Z" />
<glyph unicode="`" d="M400 549L259 700L330 755L445 584L400 549Z" />
<glyph unicode="a" d="M204 -12Q127 -12 84 22T40 118Q40 279 237 279H417L420 295Q422 307 423 317T425 336Q425 373 402 388T322 404Q236 404 152 365L125 438Q224 484 337 484Q517 484 517 356Q517 343 516 329T511 300L447 0H380L381 44Q336 15 293 2T204
-12ZM225 69Q269 69 308 81T382 117L401 205H232Q183 205 158 186T132 126Q132 69 225 69Z" />
<glyph unicode="b" d="M280 -12Q185 -12 117 52L96 0H29L180 710H270L212 439Q286 484 357 484Q439 484 485 436T532 302Q532 236 513 179T459 79T379 12T280 -12ZM265 72Q315 72 354 101T417 180T440 294Q440 346 413 373T333 401Q298 401 262 389T194 355L143
115Q168 95 200 84T265 72Z" />
<glyph unicode="c" d="M297 -12Q190 -12 130 39T70 183Q70 271 107 339T211 445T362 484Q467 484 538 431L493 361Q462 382 431 391T362 401Q302 401 257 374T187 298T161 186Q161 130 196 101T299 72Q338 72 374 82T450 115L483 40Q390 -12 297 -12Z" />
<glyph unicode="d" d="M222 -12Q141 -12 95 36T48 171Q48 237 67 294T120 393T201 460T300 484Q387 484 452 430L512 710H602L451 0H384L385 44Q302 -12 222 -12ZM246 72Q281 72 317 84T386 117L436 357Q411 378 379 389T315 401Q265 401 225 372T162 292T139
178Q139 126 166 99T246 72Z" />
<glyph unicode="e" d="M279 -12Q171 -12 110 40T49 184Q49 269 86 337T187 444T333 484Q428 484 481 436T535 304Q535 280 531 254T519 205H139V187Q139 69 287 69Q327 69 365 79T445 113L476 41Q378 -12 279 -12ZM156 279H448V295Q448 349 418 376T328 404Q269
404 224 371T156 279Z" />
<glyph unicode="f" d="M173 0L257 391H108L125 472H274L289 545Q307 633 364 677T512 722Q594 722 656 685L616 611Q593 625 567 631T513 638Q398 638 375 527L364 472H556L539 391H347L263 0H173Z" />
<glyph unicode="g" d="M184 -222Q78 -222 -3 -172L35 -96Q98 -138 183 -138Q332 -138 359 -9L370 44Q334 22 297 10T223 -2Q142 -2 96 46T49 176Q49 240 68 296T121 394T202 460T301 484Q395 484 463 421L484 472H551L446 -25Q425 -122 359 -172T184 -222ZM247
82Q283 82 319 94T388 128L436 358Q411 378 380 389T316 401Q266 401 226 372T163 294T140 183Q140 135 167 109T247 82Z" />
<glyph unicode="h" d="M35 0L186 710H276L218 439Q292 484 372 484Q443 484 482 451T521 357Q521 342 519 327T515 300L451 0H361L423 294Q426 306 427 317T429 339Q429 371 410 386T349 401Q308 401 271 389T201 355L125 0H35Z" />
<glyph unicode="i" d="M195 0L278 391H84L102 472H385L302 82H496L478 0H195ZM620 575Q590 575 571 594T551 642Q551 676 573 699T627 722Q658 722 677 703T697 655Q697 622 675 599T620 575Z" />
<glyph unicode="j" d="M128 -222Q27 -222 -41 -173L1 -99Q55 -138 127 -138Q182 -138 218 -109T266 -25L355 391H161L179 472H462L352 -44Q334 -130 277 -176T128 -222ZM441 575Q411 575 392 594T372 642Q372 676 394 699T448 722Q479 722 498 703T518 655Q518
622 496 599T441 575Z" />
<glyph unicode="k" d="M40 0L191 710H281L184 252L466 472H593L347 282L495 0H393L276 227L160 137L130 0H40Z" />
<glyph unicode="l" d="M357 -12Q202 -12 202 116Q202 131 204 146T208 172L305 628H111L128 710H412L299 178Q297 167 296 155T294 133Q294 101 313 87T371 72Q430 72 492 103L512 25Q476 7 438 -2T357 -12Z" />
<glyph unicode="m" d="M0 0L100 472H158L156 438Q186 462 215 473T272 484Q304 484 325 472T356 437Q387 461 416 472T473 484Q516 484 540 461T565 397Q565 385 561 365L483 0H401L477 357Q478 363 478 368T479 378Q479 407 442 407Q401 407 361 372L282 0H200L276
357Q278 363 278 368T279 378Q279 407 242 407Q222 407 201 399T160 373L82 0H0Z" />
<glyph unicode="n" d="M35 0L136 472H203L202 428Q244 457 285 470T372 484Q443 484 482 451T521 357Q521 342 519 327T515 300L451 0H361L423 294Q426 306 427 317T429 339Q429 371 410 386T349 401Q308 401 270 389T201 355L125 0H35Z" />
<glyph unicode="o" d="M254 -12Q157 -12 101 40T44 182Q44 268 81 336T182 444T326 484Q423 484 479 432T536 290Q536 205 499 137T398 28T254 -12ZM258 72Q311 72 353 100T420 177T445 287Q445 343 414 372T322 401Q269 401 227 373T160 295T135 185Q135 130
166 101T258 72Z" />
<glyph unicode="p" d="M-16 -210L129 472H196L195 428Q278 484 358 484Q440 484 486 436T532 302Q532 236 513 179T460 79T379 12T280 -12Q193 -12 128 42L74 -210H-16ZM265 72Q316 72 355 101T418 180T441 294Q441 346 414 373T334 401Q299 401 263 389T194 355L144
116Q169 95 201 84T265 72Z" />
<glyph unicode="q" d="M316 -210L367 33Q293 -12 222 -12Q141 -12 95 36T48 171Q48 237 67 294T120 393T201 460T300 484Q394 484 463 421L484 472H551L406 -210H316ZM246 72Q281 72 317 84T385 117L436 357Q411 378 379 389T315 401Q265 401 225 372T162 292T139
178Q139 126 166 99T246 72Z" />
<glyph unicode="r" d="M68 0L169 472H239L234 398Q327 484 438 484Q510 484 551 448L503 376Q472 400 426 400Q318 400 220 294L158 0H68Z" />
<glyph unicode="s" d="M246 -12Q119 -12 31 48L74 121Q148 69 258 69Q324 69 359 88T395 142Q395 164 381 174T332 190L231 203Q105 219 105 316Q105 395 164 439T331 484Q438 484 526 435L489 361Q453 382 410 393T321 404Q198 404 198 333Q198 313 212 303T261
287L362 274Q487 257 487 161Q487 79 424 34T246 -12Z" />
<glyph unicode="t" d="M335 -12Q179 -12 179 116Q179 131 181 146T185 172L232 391H83L100 472H249L279 618L378 662L339 472H531L514 391H322L277 178Q274 167 273 155T271 133Q271 101 290 87T348 72Q407 72 469 103L490 25Q453 7 415 -2T335 -12Z" />
<glyph unicode="u" d="M208 -12Q137 -12 98 21T59 116Q59 131 61 146T65 172L129 472H219L157 178Q154 167 153 155T151 133Q151 102 170 87T231 72Q273 72 310 84T379 117L455 472H545L444 0H377L378 44Q337 16 296 2T208 -12Z" />
<glyph unicode="v" d="M190 0L102 472H194L260 104L483 472H579L290 0H190Z" />
<glyph unicode="w" d="M69 0L60 472H141L145 110L292 421H366L379 110L537 472H620L410 0H320L307 309L162 0H69Z" />
<glyph unicode="x" d="M-1 0L238 248L112 472H212L307 303L468 472H580L347 231L477 0H377L279 175L111 0H-1Z" />
<glyph unicode="y" d="M41 -222Q2 -222 -25 -215T-77 -190L-37 -115Q-4 -138 42 -138Q82 -138 111 -118T171 -45L198 0L103 472H196L265 109L484 472H580L241 -88Q211 -139 182 -168T120 -209T41 -222Z" />
<glyph unicode="z" d="M28 0L41 63L394 391H121L139 472H550L537 409L184 82H467L449 0H28Z" />
<glyph unicode="{" d="M324 -210Q243 -210 204 -178T165 -82Q165 -48 174 -15T193 52Q202 81 209 108T216 159Q216 190 199 202T140 215H83L97 285H148Q200 285 229 311T271 397Q275 417 277 433T280 466Q282 482 284 499T291 536Q309 623 361 666T513 710H590L575
639H524Q457 639 419 609T368 516Q365 500 362 482T357 443Q356 428 354 412T348 381Q337 324 309 294T232 250V246Q262 236 278 214T295 152Q295 121 287 90T269 30Q261 4 254 -21T247 -68Q247 -105 271 -122T352 -139H410L394 -210H324Z" />
<glyph unicode="|" d="M144 -250L357 750H441L229 -250H144Z" />
<glyph unicode="}" d="M-4 -210L11 -139H61Q129 -139 167 -109T218 -16Q221 0 224 19T228 57Q230 73 232 89T237 119Q249 176 277 206T353 250V254Q324 264 307 286T290 348Q290 379 298 410T316 470Q325 497 332 521T339 568Q339 606 314 622T234 639H176L191
710H261Q343 710 381 678T420 582Q420 549 412 515T393 448Q384 420 377 393T369 341Q369 311 387 298T446 285H503L488 215H437Q385 215 357 189T315 103Q311 83 309 67T305 34Q304 19 302 2T295 -36Q277 -123 225 -166T72 -210H-4Z" />
<glyph unicode="~" d="M36 173Q63 284 107 331T213 379Q247 379 273 362T331 300Q353 271 366 260T393 249Q423 249 446 279T486 381L561 377Q534 266 490 219T384 171Q351 171 324 189T265 250Q244 280 231 290T204 301Q174 301 152 271T111 169L36 173Z" />
<glyph unicode="&#xa0;" />
<glyph unicode="&#xa1;" d="M302 249L280 -123L269 -178H135L146 -123L283 249H302ZM333 484Q362 484 381 466T401 416Q401 383 379 361T322 338Q292 338 273 357T254 406Q254 439 276 461T333 484Z" />
<glyph unicode="&#xa2;" d="M223 -35L253 69Q167 81 120 131T73 263Q73 348 109 415T210 521T358 565L373 665H462L432 561Q504 551 562 508L517 436Q491 453 466 463T413 476L344 153Q377 157 408 167T474 196L507 118Q458 93 416 81T327 66L312 -35H223ZM272
153L341 478Q261 469 214 412T166 265Q166 168 272 153Z" />
<glyph unicode="&#xa3;" d="M15 0L35 92Q106 122 145 168T185 270H73L90 354H168Q165 368 162 382T159 415Q159 524 226 583T419 642Q519 642 589 593L543 517Q490 556 413 556Q335 556 293 522T251 422Q251 404 254 388T263 354H486L469 270H273Q265 205 239
163T158 84H481L463 0H15Z" />
<glyph unicode="&#xa4;" d="M66 56L7 127L140 228Q128 257 128 291Q128 328 140 361T175 420L92 507L166 569L235 467Q256 478 279 484T328 490Q385 490 425 461L547 574L607 503L473 402Q485 373 485 339Q485 302 473 269T438 210L521 123L447 61L378 163Q358
152 334 146T286 140Q228 140 188 169L66 56ZM289 220Q336 220 367 253T399 336Q399 370 379 390T325 410Q277 410 246 377T214 294Q214 261 234 241T289 220Z" />
<glyph unicode="&#xa5;" d="M191 0L216 116H37L52 188H231L249 273H70L86 345H258L121 630H226L326 414L516 630H629L374 345H535L519 273H341L322 188H501L486 116H307L282 0H191Z" />
<glyph unicode="&#xa6;" d="M282 400L357 750H441L367 400H282ZM144 -250L219 100H303L229 -250H144Z" />
<glyph unicode="&#xa7;" d="M218 -130Q102 -130 21 -72L62 -5Q98 -29 138 -41T226 -53Q293 -53 329 -31T366 31Q366 54 350 69T297 92L192 112Q131 124 98 156T65 239Q65 295 96 334T187 390V392Q162 410 150 435T137 491Q137 571 200 616T373 662Q487 662 571
603L529 536Q493 561 453 572T366 584Q298 584 262 562T225 501Q225 455 295 441L399 421Q460 409 493 377T526 293Q526 237 495 199T405 142V139Q454 103 454 41Q454 -38 391 -84T218 -130ZM298 177Q364 181 400 208T436 280Q436 304 419 319T366 342L298 355Q230
353 192 326T154 252Q154 227 171 212T225 190L298 177Z" />
<glyph unicode="&#xa8;" d="M268 578Q239 578 220 596T201 642Q201 674 222 696T275 719Q304 719 323 701T342 655Q342 623 321 601T268 578ZM481 578Q452 578 433 596T414 642Q414 674 435 696T488 719Q517 719 536 701T555 655Q555 623 534 601T481 578Z" />
<glyph unicode="&#xa9;" d="M281 158Q223 158 193 188T162 275Q162 339 185 388T250 464T344 492Q376 492 398 483T439 453L402 411Q390 425 375 431T341 437Q288 437 254 394T219 282Q219 213 286 213Q309 213 329 222T371 248L399 204Q369 179 341 169T281 158ZM247
18Q144 18 86 77T28 238Q28 305 50 374T115 501T222 596T371 632Q475 632 532 574T590 412Q590 345 568 276T503 149T396 54T247 18ZM251 72Q322 72 375 103T463 185T515 295T533 408Q533 489 490 533T367 578Q296 578 243 547T155 465T103 356T86 243Q86 162 128
117T251 72Z" />
<glyph unicode="&#xaa;" d="M276 273Q214 273 179 300T144 382Q144 440 183 471T299 502H439L441 514Q443 521 444 528T445 543Q445 570 427 582T367 595Q299 595 233 564L210 626Q249 644 292 653T379 662Q522 662 522 561Q522 539 517 516L468 283H413L414 320Q347
273 276 273ZM84 106L98 175H445L431 106H84ZM294 340Q361 340 412 375L427 442H296Q222 442 222 388Q222 364 239 352T294 340Z" />
<glyph unicode="&#xab;" d="M437 53L304 212L313 265L507 420L540 382L399 229L475 79L437 53ZM200 53L67 212L76 265L270 420L303 382L162 229L238 79L200 53Z" />
<glyph unicode="&#xac;" d="M399 76L446 300H63L80 377H540L476 76H399Z" />
<glyph unicode="&#xae;" d="M165 165L233 486H354Q396 486 420 465T444 405Q444 360 422 330T362 290L409 165H348L306 286H248L222 165H165ZM259 339H322Q386 339 386 400Q386 433 340 433H279L259 339ZM247 18Q144 18 86 77T28 238Q28 305 50 374T115 501T222
596T371 632Q475 632 532 574T590 412Q590 345 568 276T503 149T396 54T247 18ZM251 72Q322 72 375 103T463 185T515 295T533 408Q533 489 490 533T367 578Q296 578 243 547T155 465T103 356T86 243Q86 162 128 117T251 72Z" />
<glyph unicode="&#xaf;" d="M231 611L247 686H525L509 611H231Z" />
<glyph unicode="&#xb0;" d="M335 394Q270 394 230 431T190 527Q190 582 216 626T285 696T382 722Q448 722 488 686T528 589Q528 535 503 491T434 420T335 394ZM339 466Q385 466 417 500T450 582Q450 613 431 632T379 651Q333 651 301 617T269 534Q269 503 288
485T339 466Z" />
<glyph unicode="&#xb1;" d="M229 132L268 317H77L94 394H285L325 582H403L363 394H554L537 317H347L307 132H229ZM10 0L26 77H486L470 0H10Z" />
<glyph unicode="&#xb2;" d="M122 302L135 363Q148 423 171 461T230 521T322 555L398 571Q438 580 455 596T473 639Q473 694 385 694Q344 694 310 683T240 648L203 712Q248 742 292 755T390 768Q471 768 513 737T555 645Q555 582 521 548T408 496L332 479Q280 469
257 447T220 374H501L485 302H122Z" />
<glyph unicode="&#xb3;" d="M119 290L130 362Q243 362 310 371T407 402T437 458Q437 478 417 487T349 496H241L255 566H325Q393 566 425 585T458 641Q458 694 372 694Q294 694 230 655L200 721Q243 745 286 756T382 768Q459 768 500 740T542 657Q542 574 456 546V544Q519
525 519 465Q519 401 481 363T354 307T119 290Z" />
<glyph unicode="&#xb4;" d="M327 549L288 594L454 755L513 686L327 549Z" />
<glyph unicode="&#xb5;" d="M-13 -210L133 472H223L160 178Q158 167 157 155T155 133Q155 102 173 87T235 72Q276 72 313 84T383 117L458 472H548L448 0H381L382 45Q300 -12 212 -12Q141 -12 113 26L90 -148L77 -210H-13Z" />
<glyph unicode="&#xb6;" d="M182 -120L263 264Q172 264 128 301T83 423Q83 525 145 587T321 650H594L431 -120H354L500 571H405L259 -120H182Z" />
<glyph unicode="&#xb7;" d="M293 199Q260 199 240 220T220 272Q220 305 243 332T305 359Q338 359 358 339T379 286Q379 254 356 227T293 199Z" />
<glyph unicode="&#xb8;" d="M191 -222Q155 -222 128 -215T78 -197L103 -142Q124 -153 146 -158T195 -164Q251 -164 251 -128Q251 -117 242 -112T210 -107H159L220 0H272L235 -62Q277 -63 299 -78T322 -124Q322 -172 289 -197T191 -222Z" />
<glyph unicode="&#xb9;" d="M122 302L138 374H286L344 652L201 589L178 643L393 762H450L368 374H515L500 302H122Z" />
<glyph unicode="&#xba;" d="M311 273Q234 273 190 314T145 426Q145 494 174 547T254 631T369 662Q446 662 490 621T535 509Q535 442 506 389T426 304T311 273ZM72 106L87 175H467L453 106H72ZM316 344Q357 344 389 365T440 423T459 508Q459 548 435 570T363 592Q323
592 291 571T240 513T221 428Q221 388 246 366T316 344Z" />
<glyph unicode="&#xbb;" d="M143 417L276 259L267 206L73 51L40 88L181 241L105 391L143 417ZM380 417L513 259L504 206L310 51L277 88L418 241L342 391L380 417Z" />
<glyph unicode="&#xbc;" d="M47 350L60 410H149L178 550L95 514L76 560L216 636H268L220 410H309L296 350H47ZM412 362L377 399L611 637L662 584L412 362ZM43 -7L-8 46L241 268L276 231L43 -7ZM406 0L418 57H243L253 106L432 280H515L348 118H431L439 158L517
191L502 118H555L542 57H489L477 0H406Z" />
<glyph unicode="&#xbd;" d="M47 350L60 410H149L178 550L95 514L76 560L216 636H268L220 410H309L296 350H47ZM392 362L357 399L591 637L642 584L392 362ZM23 -7L-28 46L221 268L256 231L23 -7ZM270 0L281 54Q292 104 318 129T397 166L449 177Q469 182 477 188T486
206Q486 220 476 226T440 232Q388 232 347 206L325 262Q354 278 382 285T445 292Q555 292 555 210Q555 171 534 150T460 117L407 106Q381 100 370 91T354 60H526L513 0H270Z" />
<glyph unicode="&#xbe;" d="M38 338L47 398Q154 398 195 408T237 446Q237 457 225 460T181 464H114L126 520H175Q216 520 233 528T251 555Q251 582 205 582Q152 582 110 561L89 616Q145 642 210 642Q265 642 294 624T324 570Q324 519 271 503V501Q307 487 307
451Q307 409 282 384T198 349T38 338ZM402 362L367 399L601 637L652 584L402 362ZM33 -7L-18 46L231 268L266 231L33 -7ZM406 0L418 57H243L253 106L432 280H515L348 118H431L439 158L517 191L502 118H555L542 57H489L477 0H406Z" />
<glyph unicode="&#xbf;" d="M371 249Q371 161 345 120T258 69L203 60Q150 52 127 32T104 -28Q104 -66 134 -85T228 -104Q279 -104 322 -90T410 -45L453 -119Q398 -156 343 -173T224 -190Q121 -190 67 -149T12 -31Q12 43 51 84T176 139L232 148Q267 154 279 175T292
249H371ZM365 484Q395 484 414 466T433 416Q433 383 411 361T355 338Q325 338 306 357T287 406Q287 439 309 461T365 484Z" />
<glyph unicode="&#xc0;" d="M-27 0L327 650H429L506 0H414L396 166H159L69 0H-27ZM204 252H387L356 537L204 252ZM700 716L541 828L600 895L738 760L700 716Z" />
<glyph unicode="&#xc1;" d="M-27 0L327 650H429L506 0H414L396 166H159L69 0H-27ZM204 252H387L356 537L204 252ZM357 716L325 768L497 895L545 820L357 716Z" />
<glyph unicode="&#xc2;" d="M-27 0L327 650H429L506 0H414L396 166H159L69 0H-27ZM204 252H387L356 537L204 252ZM520 716L488 768L669 894H700L830 762L789 716L676 808L520 716Z" />
<glyph unicode="&#xc3;" d="M-27 0L327 650H429L506 0H414L396 166H159L69 0H-27ZM204 252H387L356 537L204 252ZM551 731L488 742Q507 804 537 835T609 867Q633 867 650 861T691 835Q713 816 728 816Q743 816 757 829T783 877L845 866Q827 804 797 773T724 741Q701
741 684 747T643 773Q620 791 605 791Q590 791 576 778T551 731Z" />
<glyph unicode="&#xc4;" d="M-27 0L327 650H429L506 0H414L396 166H159L69 0H-27ZM204 252H387L356 537L204 252ZM301 732Q272 732 253 750T234 796Q234 828 255 850T308 873Q337 873 355 855T374 809Q374 777 353 755T301 732ZM514 732Q485 732 466 750T447 796Q447
828 468 850T520 873Q549 873 568 855T587 809Q587 777 566 755T514 732Z" />
<glyph unicode="&#xc5;" d="M-27 0L327 650H429L506 0H414L396 166H159L69 0H-27ZM204 252H387L356 537L204 252ZM401 689Q355 689 326 717T296 790Q296 825 312 854T357 900T419 917Q465 917 495 889T525 816Q525 781 508 752T463 706T401 689ZM401 752Q426 752
442 770T459 815Q459 832 448 843T419 854Q394 854 378 836T361 791Q361 774 372 763T401 752Z" />
<glyph unicode="&#xc6;" d="M-52 0L321 650H656L638 569H447L405 371H567L550 291H388L343 81H535L517 0H241L272 145H121L40 0H-52ZM166 226H289L362 569H360L166 226Z" />
<glyph unicode="&#xc7;" d="M297 -12Q186 -12 128 47T69 218Q69 275 81 337T118 456T182 560T277 634T405 662Q464 662 507 645T585 590L527 522Q477 575 400 575Q348 575 309 552T241 491T196 407T171 314T162 225Q162 75 302 75Q343 75 379 89T456 137L503 66Q453
26 403 7T297 -12ZM216 -222Q180 -222 153 -215T103 -197L128 -142Q149 -153 171 -158T220 -164Q276 -164 276 -128Q276 -117 267 -112T235 -107H184L245 0H297L260 -62Q302 -63 324 -78T347 -124Q347 -172 314 -197T216 -222Z" />
<glyph unicode="&#xc8;" d="M51 0L190 650H602L583 564H263L223 374H495L477 288H205L162 86H482L463 0H51ZM462 716L303 828L362 895L500 760L462 716Z" />
<glyph unicode="&#xc9;" d="M51 0L190 650H602L583 564H263L223 374H495L477 288H205L162 86H482L463 0H51ZM374 716L342 768L514 895L562 820L374 716Z" />
<glyph unicode="&#xca;" d="M51 0L190 650H602L583 564H263L223 374H495L477 288H205L162 86H482L463 0H51ZM282 716L250 768L431 894H462L592 762L551 716L438 808L282 716Z" />
<glyph unicode="&#xcb;" d="M51 0L190 650H602L583 564H263L223 374H495L477 288H205L162 86H482L463 0H51ZM318 732Q289 732 270 750T251 796Q251 828 272 850T325 873Q354 873 372 855T391 809Q391 777 370 755T318 732ZM531 732Q502 732 483 750T464 796Q464
828 485 850T537 873Q566 873 585 855T604 809Q604 777 583 755T531 732Z" />
<glyph unicode="&#xcc;" d="M28 0L47 86H212L313 564H148L166 650H590L571 564H405L304 86H470L451 0H28ZM700 716L541 828L600 895L738 760L700 716Z" />
<glyph unicode="&#xcd;" d="M28 0L47 86H212L313 564H148L166 650H590L571 564H405L304 86H470L451 0H28ZM357 716L325 768L497 895L545 820L357 716Z" />
<glyph unicode="&#xce;" d="M28 0L47 86H212L313 564H148L166 650H590L571 564H405L304 86H470L451 0H28ZM520 716L488 768L669 894H700L830 762L789 716L676 808L520 716Z" />
<glyph unicode="&#xcf;" d="M28 0L47 86H212L313 564H148L166 650H590L571 564H405L304 86H470L451 0H28ZM301 732Q272 732 253 750T234 796Q234 828 255 850T308 873Q337 873 355 855T374 809Q374 777 353 755T301 732ZM514 732Q485 732 466 750T447 796Q447
828 468 850T520 873Q549 873 568 855T587 809Q587 777 566 755T514 732Z" />
<glyph unicode="&#xd0;" d="M23 287L40 363H353L337 287H23ZM51 0L189 650H345Q461 650 521 593T581 424Q581 350 562 275T502 138T394 38T230 0H51ZM161 86H233Q306 86 355 116T433 195T475 302T488 415Q488 492 449 528T328 564H263L161 86Z" />
<glyph unicode="&#xd1;" d="M21 0L159 650H266L409 166L512 650H597L459 0H371L217 523L106 0H21ZM551 731L488 742Q507 804 537 835T609 867Q633 867 650 861T691 835Q713 816 728 816Q743 816 757 829T783 877L845 866Q827 804 797 773T724 741Q701 741 684
747T643 773Q620 791 605 791Q590 791 576 778T551 731Z" />
<glyph unicode="&#xd2;" d="M253 -12Q47 -12 47 206Q47 261 58 323T92 445T153 555T242 633T364 662Q570 662 570 445Q570 389 559 327T525 205T464 96T375 18T253 -12ZM257 75Q305 75 341 100T403 166T445 255T469 352T476 438Q476 575 360 575Q312 575 276 550T214
484T172 395T149 298T141 212Q141 75 257 75ZM700 716L541 828L600 895L738 760L700 716Z" />
<glyph unicode="&#xd3;" d="M253 -12Q47 -12 47 206Q47 261 58 323T92 445T153 555T242 633T364 662Q570 662 570 445Q570 389 559 327T525 205T464 96T375 18T253 -12ZM257 75Q305 75 341 100T403 166T445 255T469 352T476 438Q476 575 360 575Q312 575 276 550T214
484T172 395T149 298T141 212Q141 75 257 75ZM357 716L325 768L497 895L545 820L357 716Z" />
<glyph unicode="&#xd4;" d="M253 -12Q47 -12 47 206Q47 261 58 323T92 445T153 555T242 633T364 662Q570 662 570 445Q570 389 559 327T525 205T464 96T375 18T253 -12ZM257 75Q305 75 341 100T403 166T445 255T469 352T476 438Q476 575 360 575Q312 575 276 550T214
484T172 395T149 298T141 212Q141 75 257 75ZM520 716L488 768L669 894H700L830 762L789 716L676 808L520 716Z" />
<glyph unicode="&#xd5;" d="M253 -12Q47 -12 47 206Q47 261 58 323T92 445T153 555T242 633T364 662Q570 662 570 445Q570 389 559 327T525 205T464 96T375 18T253 -12ZM257 75Q305 75 341 100T403 166T445 255T469 352T476 438Q476 575 360 575Q312 575 276 550T214
484T172 395T149 298T141 212Q141 75 257 75ZM551 731L488 742Q507 804 537 835T609 867Q633 867 650 861T691 835Q713 816 728 816Q743 816 757 829T783 877L845 866Q827 804 797 773T724 741Q701 741 684 747T643 773Q620 791 605 791Q590 791 576 778T551 731Z"
/>
<glyph unicode="&#xd6;" d="M253 -12Q47 -12 47 206Q47 261 58 323T92 445T153 555T242 633T364 662Q570 662 570 445Q570 389 559 327T525 205T464 96T375 18T253 -12ZM257 75Q305 75 341 100T403 166T445 255T469 352T476 438Q476 575 360 575Q312 575 276 550T214
484T172 395T149 298T141 212Q141 75 257 75ZM301 732Q272 732 253 750T234 796Q234 828 255 850T308 873Q337 873 355 855T374 809Q374 777 353 755T301 732ZM514 732Q485 732 466 750T447 796Q447 828 468 850T520 873Q549 873 568 855T587 809Q587 777 566 755T514
732Z" />
<glyph unicode="&#xd7;" d="M97 61L50 120L245 281L119 442L179 491L305 330L500 491L546 432L352 272L478 111L418 61L291 222L97 61Z" />
<glyph unicode="&#xd8;" d="M253 -12Q47 -12 47 206Q47 261 58 323T92 445T153 555T242 633T364 662Q570 662 570 445Q570 389 559 327T525 205T464 96T375 18T253 -12ZM257 75Q305 75 341 100T403 166T445 255T469 352T476 438Q476 575 360 575Q312 575 276 550T214
484T172 395T149 298T141 212Q141 75 257 75ZM18 -32L-29 13L600 682L647 637L18 -32Z" />
<glyph unicode="&#xd9;" d="M248 -12Q155 -12 107 30T58 149Q58 163 59 178T64 209L159 650H251L158 213Q155 201 154 189T152 167Q152 75 257 75Q385 75 415 213L507 650H597L502 199Q479 95 415 42T248 -12ZM700 716L541 828L600 895L738 760L700 716Z" />
<glyph unicode="&#xda;" d="M248 -12Q155 -12 107 30T58 149Q58 163 59 178T64 209L159 650H251L158 213Q155 201 154 189T152 167Q152 75 257 75Q385 75 415 213L507 650H597L502 199Q479 95 415 42T248 -12ZM357 716L325 768L497 895L545 820L357 716Z" />
<glyph unicode="&#xdb;" d="M248 -12Q155 -12 107 30T58 149Q58 163 59 178T64 209L159 650H251L158 213Q155 201 154 189T152 167Q152 75 257 75Q385 75 415 213L507 650H597L502 199Q479 95 415 42T248 -12ZM520 716L488 768L669 894H700L830 762L789 716L676
808L520 716Z" />
<glyph unicode="&#xdc;" d="M248 -12Q155 -12 107 30T58 149Q58 163 59 178T64 209L159 650H251L158 213Q155 201 154 189T152 167Q152 75 257 75Q385 75 415 213L507 650H597L502 199Q479 95 415 42T248 -12ZM301 732Q272 732 253 750T234 796Q234 828 255 850T308
873Q337 873 355 855T374 809Q374 777 353 755T301 732ZM514 732Q485 732 466 750T447 796Q447 828 468 850T520 873Q549 873 568 855T587 809Q587 777 566 755T514 732Z" />
<glyph unicode="&#xdd;" d="M193 0L254 284L113 650H215L317 370L536 650H643L343 274L285 0H193ZM612 716L580 768L752 895L800 820L612 716Z" />
<glyph unicode="&#xde;" d="M35 0L174 650H266L243 540H382Q469 540 514 503T559 394Q559 283 496 222T316 160H162L128 0H35ZM180 246H319Q465 246 465 382Q465 420 440 437T359 454H224L180 246Z" />
<glyph unicode="&#xdf;" d="M326 -12Q286 -12 253 -3T193 25L229 101Q253 86 274 79T324 72Q373 72 400 93T428 151Q428 170 417 185T376 220Q338 246 321 272T304 335Q304 372 319 403T375 480Q403 511 415 534T427 582Q427 638 350 638Q300 638 269 608T224
516L114 0H24L138 536Q158 628 213 675T356 722Q433 722 475 687T518 591Q518 550 503 517T450 442Q421 409 409 389T397 346Q397 329 408 315T447 283Q487 258 503 230T520 159Q520 81 468 35T326 -12Z" />
<glyph unicode="&#xe0;" d="M204 -12Q127 -12 84 22T40 118Q40 279 237 279H417L420 295Q422 307 423 317T425 336Q425 373 402 388T322 404Q236 404 152 365L125 438Q224 484 337 484Q517 484 517 356Q517 343 516 329T511 300L447 0H380L381 44Q336 15 293 2T204
-12ZM225 69Q269 69 308 81T382 117L401 205H232Q183 205 158 186T132 126Q132 69 225 69ZM652 549L511 700L582 755L697 584L652 549Z" />
<glyph unicode="&#xe1;" d="M204 -12Q127 -12 84 22T40 118Q40 279 237 279H417L420 295Q422 307 423 317T425 336Q425 373 402 388T322 404Q236 404 152 365L125 438Q224 484 337 484Q517 484 517 356Q517 343 516 329T511 300L447 0H380L381 44Q336 15 293 2T204
-12ZM225 69Q269 69 308 81T382 117L401 205H232Q183 205 158 186T132 126Q132 69 225 69ZM579 549L540 594L706 755L765 686L579 549Z" />
<glyph unicode="&#xe2;" d="M204 -12Q127 -12 84 22T40 118Q40 279 237 279H417L420 295Q422 307 423 317T425 336Q425 373 402 388T322 404Q236 404 152 365L125 438Q224 484 337 484Q517 484 517 356Q517 343 516 329T511 300L447 0H380L381 44Q336 15 293 2T204
-12ZM225 69Q269 69 308 81T382 117L401 205H232Q183 205 158 186T132 126Q132 69 225 69ZM488 549L449 597L633 755H663L783 584L734 549L636 659L488 549Z" />
<glyph unicode="&#xe3;" d="M204 -12Q127 -12 84 22T40 118Q40 279 237 279H417L420 295Q422 307 423 317T425 336Q425 373 402 388T322 404Q236 404 152 365L125 438Q224 484 337 484Q517 484 517 356Q517 343 516 329T511 300L447 0H380L381 44Q336 15 293 2T204
-12ZM225 69Q269 69 308 81T382 117L401 205H232Q183 205 158 186T132 126Q132 69 225 69ZM512 567L451 579Q470 647 500 682T573 718Q597 718 614 710T654 677Q667 664 674 659T691 654Q707 654 721 671T748 729L809 718Q791 650 761 615T687 579Q664 579 646
587T606 619Q593 633 586 637T570 642Q553 642 539 625T512 567Z" />
<glyph unicode="&#xe4;" d="M204 -12Q127 -12 84 22T40 118Q40 279 237 279H417L420 295Q422 307 423 317T425 336Q425 373 402 388T322 404Q236 404 152 365L125 438Q224 484 337 484Q517 484 517 356Q517 343 516 329T511 300L447 0H380L381 44Q336 15 293 2T204
-12ZM225 69Q269 69 308 81T382 117L401 205H232Q183 205 158 186T132 126Q132 69 225 69ZM520 578Q491 578 472 596T453 642Q453 674 474 696T527 719Q556 719 575 701T594 655Q594 623 573 601T520 578ZM733 578Q704 578 685 596T666 642Q666 674 687 696T740
719Q769 719 788 701T807 655Q807 623 786 601T733 578Z" />
<glyph unicode="&#xe5;" d="M204 -12Q127 -12 84 22T40 118Q40 279 237 279H417L420 295Q422 307 423 317T425 336Q425 373 402 388T322 404Q236 404 152 365L125 438Q224 484 337 484Q517 484 517 356Q517 343 516 329T511 300L447 0H380L381 44Q336 15 293 2T204
-12ZM225 69Q269 69 308 81T382 117L401 205H232Q183 205 158 186T132 126Q132 69 225 69ZM621 535Q575 535 545 563T515 635Q515 671 532 699T577 745T639 762Q685 762 714 734T744 662Q744 627 728 598T683 552T621 535ZM621 597Q646 597 662 615T679 661Q679
678 668 689T639 700Q614 700 598 682T581 637Q581 619 592 608T621 597Z" />
<glyph unicode="&#xe6;" d="M116 -12Q57 -12 23 21T-11 111Q-11 192 37 234T179 277H245Q249 300 251 316T254 342Q254 409 189 409Q142 409 87 375L56 440Q126 484 204 484Q301 484 317 408H319Q368 484 452 484Q512 484 543 448T575 339Q575 308 569 272T554
208H314Q311 191 310 177T309 152Q309 106 329 85T392 63Q444 63 498 98L528 32Q459 -12 381 -12Q287 -12 250 48Q189 -12 116 -12ZM138 63Q164 63 185 73T229 107Q226 126 226 147Q226 161 227 176T231 208H173Q126 208 100 185T73 120Q73 63 138 63ZM328 277H490Q492
293 493 306T495 332Q495 409 438 409Q403 409 375 375T328 277Z" />
<glyph unicode="&#xe7;" d="M297 -12Q190 -12 130 39T70 183Q70 271 107 339T211 445T362 484Q467 484 538 431L493 361Q462 382 431 391T362 401Q302 401 257 374T187 298T161 186Q161 130 196 101T299 72Q338 72 374 82T450 115L483 40Q390 -12 297 -12ZM212
-222Q176 -222 149 -215T99 -197L124 -142Q145 -153 167 -158T216 -164Q272 -164 272 -128Q272 -117 263 -112T231 -107H180L241 0H293L256 -62Q298 -63 320 -78T343 -124Q343 -172 310 -197T212 -222Z" />
<glyph unicode="&#xe8;" d="M279 -12Q171 -12 110 40T49 184Q49 269 86 337T187 444T333 484Q428 484 481 436T535 304Q535 280 531 254T519 205H139V187Q139 69 287 69Q327 69 365 79T445 113L476 41Q378 -12 279 -12ZM156 279H448V295Q448 349 418 376T328 404Q269
404 224 371T156 279ZM406 549L265 700L336 755L451 584L406 549Z" />
<glyph unicode="&#xe9;" d="M279 -12Q171 -12 110 40T49 184Q49 269 86 337T187 444T333 484Q428 484 481 436T535 304Q535 280 531 254T519 205H139V187Q139 69 287 69Q327 69 365 79T445 113L476 41Q378 -12 279 -12ZM156 279H448V295Q448 349 418 376T328 404Q269
404 224 371T156 279ZM334 549L295 594L461 755L520 686L334 549Z" />
<glyph unicode="&#xea;" d="M279 -12Q171 -12 110 40T49 184Q49 269 86 337T187 444T333 484Q428 484 481 436T535 304Q535 280 531 254T519 205H139V187Q139 69 287 69Q327 69 365 79T445 113L476 41Q378 -12 279 -12ZM156 279H448V295Q448 349 418 376T328 404Q269
404 224 371T156 279ZM243 549L204 597L388 755H418L538 584L489 549L391 659L243 549Z" />
<glyph unicode="&#xeb;" d="M279 -12Q171 -12 110 40T49 184Q49 269 86 337T187 444T333 484Q428 484 481 436T535 304Q535 280 531 254T519 205H139V187Q139 69 287 69Q327 69 365 79T445 113L476 41Q378 -12 279 -12ZM156 279H448V295Q448 349 418 376T328 404Q269
404 224 371T156 279ZM275 578Q246 578 227 596T208 642Q208 674 229 696T282 719Q311 719 330 701T349 655Q349 623 328 601T275 578ZM488 578Q459 578 440 596T421 642Q421 674 442 696T495 719Q524 719 543 701T562 655Q562 623 541 601T488 578Z" />
<glyph unicode="&#xec;" d="M195 0L278 391H84L102 472H385L302 82H496L478 0H195ZM645 549L504 700L575 755L690 584L645 549Z" />
<glyph unicode="&#xed;" d="M195 0L278 391H84L102 472H385L302 82H496L478 0H195ZM573 549L534 594L700 755L759 686L573 549Z" />
<glyph unicode="&#xee;" d="M195 0L278 391H84L102 472H385L302 82H496L478 0H195ZM482 549L443 597L627 755H657L777 584L728 549L630 659L482 549Z" />
<glyph unicode="&#xef;" d="M195 0L278 391H84L102 472H385L302 82H496L478 0H195ZM514 578Q485 578 466 596T447 642Q447 674 468 696T521 719Q550 719 569 701T588 655Q588 623 567 601T514 578ZM727 578Q698 578 679 596T660 642Q660 674 681 696T734 719Q763
719 782 701T801 655Q801 623 780 601T727 578Z" />
<glyph unicode="&#xf0;" d="M247 -12Q153 -12 97 40T41 180Q41 253 74 310T166 400T298 433Q393 433 448 369H450Q446 469 393 536L197 458L174 521L348 581Q288 629 198 645L222 721Q357 696 439 612L559 664L581 600L476 567Q540 476 540 353Q540 245 503 163T400
34T247 -12ZM254 72Q331 72 380 127T444 285Q422 321 389 337T312 354Q232 354 183 308T133 186Q133 132 164 102T254 72Z" />
<glyph unicode="&#xf1;" d="M35 0L136 472H203L202 428Q244 457 285 470T372 484Q443 484 482 451T521 357Q521 342 519 327T515 300L451 0H361L423 294Q426 306 427 317T429 339Q429 371 410 386T349 401Q308 401 270 389T201 355L125 0H35ZM270 567L209 579Q228
647 258 682T331 718Q355 718 372 710T412 677Q425 664 432 659T449 654Q465 654 479 671T506 729L567 718Q549 650 519 615T445 579Q422 579 404 587T364 619Q351 633 344 637T328 642Q311 642 297 625T270 567Z" />
<glyph unicode="&#xf2;" d="M254 -12Q157 -12 101 40T44 182Q44 268 81 336T182 444T326 484Q423 484 479 432T536 290Q536 205 499 137T398 28T254 -12ZM258 72Q311 72 353 100T420 177T445 287Q445 343 414 372T322 401Q269 401 227 373T160 295T135 185Q135
130 166 101T258 72ZM655 549L514 700L585 755L700 584L655 549Z" />
<glyph unicode="&#xf3;" d="M254 -12Q157 -12 101 40T44 182Q44 268 81 336T182 444T326 484Q423 484 479 432T536 290Q536 205 499 137T398 28T254 -12ZM258 72Q311 72 353 100T420 177T445 287Q445 343 414 372T322 401Q269 401 227 373T160 295T135 185Q135
130 166 101T258 72ZM327 549L288 594L454 755L513 686L327 549Z" />
<glyph unicode="&#xf4;" d="M254 -12Q157 -12 101 40T44 182Q44 268 81 336T182 444T326 484Q423 484 479 432T536 290Q536 205 499 137T398 28T254 -12ZM258 72Q311 72 353 100T420 177T445 287Q445 343 414 372T322 401Q269 401 227 373T160 295T135 185Q135
130 166 101T258 72ZM492 549L453 597L637 755H667L787 584L738 549L640 659L492 549Z" />
<glyph unicode="&#xf5;" d="M254 -12Q157 -12 101 40T44 182Q44 268 81 336T182 444T326 484Q423 484 479 432T536 290Q536 205 499 137T398 28T254 -12ZM258 72Q311 72 353 100T420 177T445 287Q445 343 414 372T322 401Q269 401 227 373T160 295T135 185Q135
130 166 101T258 72ZM260 567L199 579Q218 647 248 682T321 718Q345 718 362 710T402 677Q415 664 422 659T439 654Q455 654 469 671T496 729L557 718Q539 650 509 615T435 579Q412 579 394 587T354 619Q341 633 334 637T318 642Q301 642 287 625T260 567Z" />
<glyph unicode="&#xf6;" d="M254 -12Q157 -12 101 40T44 182Q44 268 81 336T182 444T326 484Q423 484 479 432T536 290Q536 205 499 137T398 28T254 -12ZM258 72Q311 72 353 100T420 177T445 287Q445 343 414 372T322 401Q269 401 227 373T160 295T135 185Q135
130 166 101T258 72ZM268 578Q239 578 220 596T201 642Q201 674 222 696T275 719Q304 719 323 701T342 655Q342 623 321 601T268 578ZM481 578Q452 578 433 596T414 642Q414 674 435 696T488 719Q517 719 536 701T555 655Q555 623 534 601T481 578Z" />
<glyph unicode="&#xf7;" d="M50 238L67 315H547L530 238H50ZM252 8Q225 8 206 25T187 70Q187 101 208 123T259 145Q287 145 305 128T324 83Q324 52 304 30T252 8ZM338 407Q310 407 292 424T273 469Q273 501 293 522T345 544Q373 544 391 527T410 482Q410 451 389
429T338 407Z" />
<glyph unicode="&#xf8;" d="M254 -12Q157 -12 101 40T44 182Q44 246 65 301T124 397T214 461T326 484Q423 484 479 432T536 290Q536 227 515 172T456 76T366 11T254 -12ZM258 70Q312 70 355 98T422 177T447 288Q447 345 415 374T322 403Q268 403 225 374T158 296T133
184Q133 129 165 100T258 70ZM41 -12L1 39L540 484L579 434L41 -12Z" />
<glyph unicode="&#xf9;" d="M208 -12Q137 -12 98 21T59 116Q59 131 61 146T65 172L129 472H219L157 178Q154 167 153 155T151 133Q151 102 170 87T231 72Q273 72 310 84T379 117L455 472H545L444 0H377L378 44Q337 16 296 2T208 -12ZM655 549L514 700L585 755L700
584L655 549Z" />
<glyph unicode="&#xfa;" d="M208 -12Q137 -12 98 21T59 116Q59 131 61 146T65 172L129 472H219L157 178Q154 167 153 155T151 133Q151 102 170 87T231 72Q273 72 310 84T379 117L455 472H545L444 0H377L378 44Q337 16 296 2T208 -12ZM327 549L288 594L454 755L513
686L327 549Z" />
<glyph unicode="&#xfb;" d="M208 -12Q137 -12 98 21T59 116Q59 131 61 146T65 172L129 472H219L157 178Q154 167 153 155T151 133Q151 102 170 87T231 72Q273 72 310 84T379 117L455 472H545L444 0H377L378 44Q337 16 296 2T208 -12ZM492 549L453 597L637 755H667L787
584L738 549L640 659L492 549Z" />
<glyph unicode="&#xfc;" d="M208 -12Q137 -12 98 21T59 116Q59 131 61 146T65 172L129 472H219L157 178Q154 167 153 155T151 133Q151 102 170 87T231 72Q273 72 310 84T379 117L455 472H545L444 0H377L378 44Q337 16 296 2T208 -12ZM268 578Q239 578 220 596T201
642Q201 674 222 696T275 719Q304 719 323 701T342 655Q342 623 321 601T268 578ZM481 578Q452 578 433 596T414 642Q414 674 435 696T488 719Q517 719 536 701T555 655Q555 623 534 601T481 578Z" />
<glyph unicode="&#xfd;" d="M41 -222Q2 -222 -25 -215T-77 -190L-37 -115Q-4 -138 42 -138Q82 -138 111 -118T171 -45L198 0L103 472H196L265 109L484 472H580L241 -88Q211 -139 182 -168T120 -209T41 -222ZM582 549L543 594L709 755L768 686L582 549Z" />
<glyph unicode="&#xfe;" d="M-16 -210L180 710H270L212 439Q285 484 358 484Q440 484 486 436T532 302Q532 236 513 179T460 79T379 12T280 -12Q193 -12 128 42L74 -210H-16ZM265 72Q316 72 355 101T418 180T441 294Q441 346 414 373T334 401Q299 401 263 389T194
355L144 116Q169 95 201 84T265 72Z" />
<glyph unicode="&#xff;" d="M41 -222Q2 -222 -25 -215T-77 -190L-37 -115Q-4 -138 42 -138Q82 -138 111 -118T171 -45L198 0L103 472H196L265 109L484 472H580L241 -88Q211 -139 182 -168T120 -209T41 -222ZM523 578Q494 578 475 596T456 642Q456 674 477 696T530
719Q559 719 578 701T597 655Q597 623 576 601T523 578ZM736 578Q707 578 688 596T669 642Q669 674 690 696T743 719Q772 719 791 701T810 655Q810 623 789 601T736 578Z" />
<glyph unicode="&#x2013;" d="M61 240L76 313H536L521 240H61Z" />
<glyph unicode="&#x2014;" d="M1 240L16 313H596L581 240H1Z" />
<glyph unicode="&#x2018;" d="M466 662L477 609Q425 599 384 564T327 480Q358 480 377 462T397 412Q397 378 374 351T310 324Q278 324 258 345T237 405Q237 445 255 486T305 564T378 627T466 662Z" />
<glyph unicode="&#x2019;" d="M223 325L212 378Q265 388 306 423T362 507Q332 507 313 525T293 574Q293 608 316 635T380 662Q412 662 432 642T453 581Q453 541 435 500T385 423T311 360T223 325Z" />
<glyph unicode="&#x201a;" d="M104 -189L93 -136Q146 -126 187 -91T243 -7Q213 -7 194 11T174 60Q174 94 197 121T261 148Q293 148 313 128T334 67Q334 27 316 -14T266 -91T192 -154T104 -189Z" />
<glyph unicode="&#x201c;" d="M342 662L353 609Q301 599 260 564T203 480Q234 480 253 462T272 412Q272 378 249 351T186 324Q154 324 134 345T113 405Q113 445 131 486T181 564T254 627T342 662ZM590 662L601 609Q549 599 508 564T451 480Q482 480 501 462T521
412Q521 378 498 351T434 324Q402 324 382 345T361 405Q361 445 379 486T429 564T502 627T590 662Z" />
<glyph unicode="&#x201d;" d="M348 325L337 378Q390 388 431 423T487 507Q457 507 438 525T418 574Q418 608 441 635T505 662Q537 662 557 642T578 581Q578 541 560 500T510 423T436 360T348 325ZM99 325L88 378Q141 388 182 423T238 507Q208 507 189 525T169
574Q169 608 192 635T256 662Q288 662 308 642T329 581Q329 541 311 500T261 423T187 360T99 325Z" />
<glyph unicode="&#x201e;" d="M228 -189L217 -136Q270 -126 311 -91T367 -7Q337 -7 318 11T298 60Q298 94 321 121T385 148Q417 148 437 128T458 67Q458 27 440 -14T390 -91T316 -154T228 -189ZM236 -189L225 -136Q278 -126 319 -91T375 -7Q345 -7 326 11T306
60Q306 94 329 121T393 148Q425 148 445 128T466 67Q466 27 448 -14T398 -91T324 -154T236 -189Z" />
<glyph unicode="&#x2022;" d="M288 140Q250 140 221 157T176 203T159 270Q159 310 179 344T235 399T310 420Q348 420 377 403T422 357T439 290Q439 250 419 216T364 161T288 140Z" />
<glyph unicode="&#x2039;" d="M352 54L158 213L168 266L418 418L446 377L263 230L384 89L352 54Z" />
<glyph unicode="&#x203a;" d="M228 419L422 260L412 207L162 54L134 95L317 243L196 384L228 419Z" />
</font>
</defs>
</svg>
