<?xml version="1.0" standalone="no"?>
<!DOCTYPE svg PUBLIC "-//W3C//DTD SVG 1.1//EN" "http://www.w3.org/Graphics/SVG/1.1/DTD/svg11.dtd">
<svg xmlns="http://www.w3.org/2000/svg">
<defs >
<font id="SometypeMono" horiz-adv-x="580" ><font-face
    font-family="Sometype Mono"
    units-per-em="1000"
    panose-1="2 11 0 9 2 2 3 3 2 4"
    ascent="925"
    descent="-275"
    alphabetic="0" />
<glyph unicode=" " />
<glyph unicode="!" d="M279 218L306 606L315 650H441L432 606L295 218H279ZM247 -12Q219 -12 201 6T183 52Q183 83 204 104T257 126Q285 126 303 109T321 62Q321 31 300 10T247 -12Z" />
<glyph unicode="&quot;" d="M182 374L208 650H318L226 374H182ZM414 374L440 650H550L458 374H414Z" />
<glyph unicode="#" d="M58 0L125 174H8L30 232H147L219 418H101L124 476H242L301 630H364L305 476H431L490 630H553L494 476H611L588 418H471L399 232H517L495 174H377L310 0H247L314 174H188L121 0H58ZM210 232H336L408 418H282L210 232Z" />
<glyph unicode="$" d="M189 -82L219 20Q95 30 31 99L76 156Q134 98 235 91L277 288L244 293Q118 313 118 428Q118 508 180 557T345 611L359 712H435L404 609Q498 599 561 549L521 487Q465 531 388 539L348 350L384 344Q509 324 509 211Q509 127 448 76T279 19L265
-82H189ZM293 91Q358 96 395 125T433 200Q433 236 412 253T333 279L293 91ZM292 358L331 540Q268 536 231 508T194 437Q194 402 215 384T292 358Z" />
<glyph unicode="%" d="M186 342Q134 342 104 372T73 455Q73 509 94 551T151 617T234 642Q286 642 316 612T347 529Q347 476 326 434T269 367T186 342ZM185 398Q226 398 255 436T284 530Q284 586 235 586Q194 586 165 548T136 454Q136 398 185 398ZM388 364L359
395L593 634L640 586L388 364ZM21 -4L-26 44L226 266L255 235L21 -4ZM380 -12Q328 -12 298 18T267 101Q267 155 288 197T345 263T428 288Q480 288 510 258T541 175Q541 122 520 80T463 13T380 -12ZM379 44Q420 44 449 82T478 176Q478 232 429 232Q388 232 359 194T330
100Q330 44 379 44Z" />
<glyph unicode="&amp;" d="M167 -12Q97 -12 55 29T13 138Q13 213 52 263T173 352V355Q151 390 142 419T132 476Q132 560 184 611T323 662Q391 662 430 629T470 537Q470 472 431 427T298 340L282 333V331L383 185Q408 217 434 258T490 354L545 321Q506 257 476
212T418 135L511 0H420L365 78Q319 32 271 10T167 -12ZM180 56Q218 56 255 73T331 128L209 302Q88 254 88 144Q88 104 113 80T180 56ZM246 383L286 400Q347 426 372 454T398 526Q398 558 378 576T319 595Q267 595 236 564T204 483Q204 462 213 440T246 383Z" />
<glyph unicode="&apos;" d="M287 324L319 650H439L331 324H287Z" />
<glyph unicode="(" d="M359 -222Q285 -201 232 -152T151 -31T123 132Q123 242 155 341T245 519T381 651T554 722L541 657Q466 638 403 589T294 468T222 309T196 125Q196 16 241 -57T371 -161L359 -222Z" />
<glyph unicode=")" d="M32 -222L45 -157Q120 -137 183 -88T292 32T364 191T390 375Q390 485 346 558T215 661L227 722Q302 701 354 652T435 531T463 368Q463 258 431 159T341 -19T205 -151T32 -222Z" />
<glyph unicode="*" d="M283 23L209 38L265 238L72 162L49 234L250 285L87 414L138 471L283 322L314 527L388 512L332 312L525 388L548 316L348 265L510 136L459 79L314 228L283 23Z" />
<glyph unicode="+" d="M214 35L258 242H51L66 308H273L317 515H383L339 308H546L531 242H324L280 35H214Z" />
<glyph unicode="," d="M109 -189L97 -140Q149 -128 189 -92T245 -7Q215 -7 197 10T178 56Q178 88 200 113T259 138Q289 138 308 119T328 64Q328 27 311 -13T264 -89T194 -151T109 -189Z" />
<glyph unicode="-" d="M91 242L106 308H506L491 242H91Z" />
<glyph unicode="." d="M248 -12Q217 -12 198 7T179 56Q179 87 201 112T259 138Q290 138 309 119T328 70Q328 39 306 14T248 -12Z" />
<glyph unicode="/" d="M-7 -60L541 710H625L77 -60H-7Z" />
<glyph unicode="0" d="M253 -12Q157 -12 107 42T56 200Q56 254 67 314T100 433T159 538T245 613T361 642Q457 642 507 588T558 430Q558 376 547 316T514 197T455 92T369 17T253 -12ZM254 58Q304 58 342 83T408 149T451 240T476 338T484 427L139 135Q164 58 254
58ZM130 203L475 495Q451 572 360 572Q310 572 272 547T206 481T163 390T138 292T130 203Z" />
<glyph unicode="1" d="M15 0L30 68H219L315 518L134 410L109 454L364 636H414L293 68H484L469 0H15Z" />
<glyph unicode="2" d="M26 0L40 67Q57 148 86 201T163 288T279 337L367 358Q426 372 452 401T479 481Q479 572 361 572Q266 572 177 505L143 565Q199 606 252 624T366 642Q456 642 505 602T554 487Q554 407 511 358T373 286L285 265Q236 253 203 231T150 169T115
68H470L455 0H26Z" />
<glyph unicode="3" d="M22 -12L32 56Q173 57 260 74T387 127T428 220Q428 256 398 271T297 287H184L199 355H278Q364 355 413 389T462 485Q462 572 348 572Q299 572 255 559T166 516L136 577Q237 642 356 642Q445 642 492 606T539 500Q539 442 510 402T422 337V334Q504
311 504 226Q504 141 456 89T302 13T22 -12Z" />
<glyph unicode="4" d="M307 0L338 147H17L29 203L376 630H463L127 215H352L400 441L483 481L427 215H542L527 147H412L381 0H307Z" />
<glyph unicode="5" d="M19 -12L28 56Q170 57 257 75T385 132T426 234Q426 308 321 308Q237 308 157 267L102 293L212 630H563L549 562H258L187 346Q260 378 338 378Q416 378 458 343T501 242Q501 152 452 96T297 15T19 -12Z" />
<glyph unicode="6" d="M268 -12Q171 -12 117 45T63 204Q63 410 191 524T558 642L553 574Q217 565 153 322H156Q243 396 341 396Q421 396 467 352T514 231Q514 161 483 106T396 20T268 -12ZM269 58Q319 58 357 80T418 140T440 226Q440 275 411 301T327 327Q224
327 138 235Q137 226 137 218T136 201Q136 132 170 95T269 58Z" />
<glyph unicode="7" d="M115 0Q178 168 276 302T504 560H134L149 630H598L581 552Q448 425 353 292T201 0H115Z" />
<glyph unicode="8" d="M557 500Q557 441 526 397T427 316V314Q516 268 516 189Q516 127 485 82T397 12T260 -12Q151 -12 93 27T34 137Q34 203 71 250T192 338V340Q125 383 125 453Q125 509 154 551T235 618T357 642Q452 642 504 605T557 500ZM351 572Q283 572
243 543T202 465Q202 419 267 388L358 346Q422 375 451 410T481 491Q481 530 447 551T351 572ZM267 58Q345 58 392 91T440 177Q440 227 379 254L261 306Q183 274 147 236T110 150Q110 106 151 82T267 58Z" />
<glyph unicode="9" d="M56 -12L61 56Q397 65 461 308H458Q371 234 273 234Q193 234 147 278T100 399Q100 470 131 524T219 610T346 642Q443 642 497 585T551 426Q551 221 423 107T56 -12ZM287 303Q390 303 476 395Q477 404 477 412T478 429Q478 498 444 535T345
572Q296 572 257 550T196 491T174 404Q174 355 203 329T287 303Z" />
<glyph unicode=":" d="M321 332Q290 332 271 351T252 400Q252 431 274 456T332 482Q363 482 382 463T401 414Q401 383 379 358T321 332ZM248 -12Q217 -12 198 7T179 56Q179 87 201 112T259 138Q290 138 309 119T328 70Q328 39 306 14T248 -12Z" />
<glyph unicode=";" d="M109 -189L97 -140Q149 -128 189 -92T245 -7Q215 -7 197 10T178 56Q178 88 200 113T259 138Q289 138 308 119T328 64Q328 27 311 -13T264 -89T194 -151T109 -189ZM321 332Q290 332 271 351T252 400Q252 431 274 456T332 482Q363 482 382
463T401 414Q401 383 379 358T321 332Z" />
<glyph unicode="&lt;" d="M440 0L82 245L95 305L557 550L540 466L167 269L456 72L440 0Z" />
<glyph unicode="=" d="M84 347L98 413H558L544 347H84ZM39 137L53 203H513L499 137H39Z" />
<glyph unicode="&gt;" d="M40 0L57 84L430 281L141 478L157 550L515 305L502 245L40 0Z" />
<glyph unicode="?" d="M211 218Q211 302 236 342T320 392L384 403Q440 413 464 437T489 505Q489 547 456 569T354 592Q304 592 260 578T168 532L133 593Q189 629 243 645T358 662Q457 662 510 622T564 506Q564 433 525 391T400 335L336 324Q303 318 290 295T276
218H211ZM208 -12Q180 -12 162 6T144 52Q144 83 165 104T218 126Q246 126 264 109T282 62Q282 31 261 10T208 -12Z" />
<glyph unicode="@" d="M270 -46Q153 -46 93 16T32 201Q32 302 59 386T136 532T252 628T397 662Q497 662 545 623T594 509Q594 479 587 448L528 169H475L478 220Q441 188 407 173T332 157Q271 157 235 190T199 285Q199 361 247 402T383 443H516Q520 465 521 477T523
499Q523 549 493 572T395 596Q334 596 281 567T189 485T127 361T104 207Q104 20 274 20Q352 20 425 62L447 0Q403 -24 360 -35T270 -46ZM348 225Q385 225 418 240T482 286L503 382H386Q332 382 302 358T272 293Q272 259 291 242T348 225Z" />
<glyph unicode="A" d="M-21 0L334 650H422L501 0H427L407 180H155L57 0H-21ZM192 250H399L362 565L192 250Z" />
<glyph unicode="B" d="M36 0L174 650H394Q562 650 562 523Q562 375 436 339V337Q515 310 515 222Q515 116 455 58T283 0H36ZM125 70H284Q360 70 399 107T439 215Q439 259 410 279T316 300H174L125 70ZM188 369H322Q404 369 444 404T485 509Q485 546 459 563T376
580H233L188 369Z" />
<glyph unicode="C" d="M297 -12Q188 -12 131 47T73 218Q73 275 85 336T122 456T186 560T280 634T406 662Q464 662 506 646T582 593L534 538Q484 591 405 591Q349 591 307 567T234 503T185 413T157 314T148 219Q148 59 299 59Q341 59 378 73T458 121L497 63Q446
24 399 6T297 -12Z" />
<glyph unicode="D" d="M32 0L170 650H321Q437 650 496 595T555 429Q555 354 537 278T478 139T370 38T205 0H32ZM121 70H204Q283 70 336 102T420 186T466 300T480 422Q480 504 438 542T307 580H229L121 70Z" />
<glyph unicode="E" d="M58 0L196 650H598L583 580H255L210 366H490L475 296H195L147 70H475L460 0H58Z" />
<glyph unicode="F" d="M62 0L200 650H602L587 580H259L213 362H493L478 292H198L136 0H62Z" />
<glyph unicode="G" d="M266 -12Q168 -12 115 47T62 217Q62 274 73 336T109 456T173 560T267 634T395 662Q505 662 571 593L523 538Q496 567 466 579T394 591Q337 591 294 567T221 503T173 413T146 313T137 218Q137 59 283 59Q352 59 413 107L451 288H318L333 358H540L464
0H417L419 45Q382 15 346 2T266 -12Z" />
<glyph unicode="H" d="M25 0L163 650H237L177 366H459L519 650H593L455 0H381L444 296H162L99 0H25Z" />
<glyph unicode="I" d="M32 0L47 70H218L326 580H155L170 650H586L571 580H400L292 70H463L448 0H32Z" />
<glyph unicode="J" d="M223 -12Q162 -12 117 7T33 70L82 125Q111 91 146 75T224 59Q292 59 337 96T397 203L477 580H248L263 650H566L468 190Q447 92 385 40T223 -12Z" />
<glyph unicode="K" d="M31 0L169 650H243L173 319L533 650H631L346 391L496 0H416L288 337L150 211L105 0H31Z" />
<glyph unicode="L" d="M62 0L200 650H274L151 70H479L464 0H62Z" />
<glyph unicode="M" d="M16 0L154 650H252L288 244L496 650H602L464 0H392L509 551L293 132H239L201 551L84 0H16Z" />
<glyph unicode="N" d="M25 0L163 650H255L413 134L523 650H593L455 0H381L212 553L95 0H25Z" />
<glyph unicode="O" d="M253 -12Q51 -12 51 204Q51 259 62 321T96 443T156 553T245 632T365 662Q567 662 567 446Q567 391 556 329T522 207T462 97T373 18T253 -12ZM254 59Q306 59 345 85T413 153T458 247T484 349T492 442Q492 591 364 591Q312 591 273 565T205
497T160 403T134 301T126 208Q126 59 254 59Z" />
<glyph unicode="P" d="M40 0L178 650H407Q493 650 536 614T580 509Q580 398 518 338T342 278H173L114 0H40ZM188 348H342Q504 348 504 500Q504 541 476 560T387 580H237L188 348Z" />
<glyph unicode="Q" d="M346 -222Q276 -222 239 -188T202 -88Q202 -73 204 -57T213 -10Q131 1 91 55T51 204Q51 259 62 321T96 443T156 553T245 632T365 662Q567 662 567 446Q567 394 558 335T527 219T473 112T394 31T287 -10Q281 -41 279 -55T277 -79Q277 -116
296 -134T353 -153Q403 -153 455 -126L475 -190Q446 -206 414 -214T346 -222ZM254 59Q306 59 345 85T413 153T458 247T484 350T492 443Q492 591 364 591Q312 591 273 565T205 497T160 403T134 301T126 208Q126 59 254 59Z" />
<glyph unicode="R" d="M37 0L175 650H399Q482 650 525 615T568 514Q568 415 517 357T371 290L482 0H402L293 288H172L111 0H37ZM187 358H337Q492 358 492 503Q492 543 465 561T380 580H234L187 358Z" />
<glyph unicode="S" d="M253 -12Q182 -12 126 10T31 76L80 131Q115 94 159 77T261 59Q341 59 385 96T430 200Q430 237 412 257T350 289L253 315Q189 332 158 368T127 458Q127 520 156 565T240 636T369 662Q488 662 567 591L522 534Q456 591 363 591Q288 591 246
558T203 469Q203 436 221 416T283 384L380 358Q444 341 475 305T506 209Q506 107 438 48T253 -12Z" />
<glyph unicode="T" d="M203 0L326 580H110L125 650H631L616 580H400L277 0H203Z" />
<glyph unicode="U" d="M246 -12Q157 -12 110 29T62 147Q62 161 63 175T68 205L163 650H237L144 211Q141 198 140 185T138 161Q138 59 254 59Q396 59 428 211L521 650H593L497 197Q475 95 411 42T246 -12Z" />
<glyph unicode="V" d="M196 0L127 650H202L259 92L552 650H629L284 0H196Z" />
<glyph unicode="W" d="M61 0L97 650H168L137 118L325 581H401L393 117L588 650H659L417 0H332L340 468L150 0H61Z" />
<glyph unicode="X" d="M4 0L273 337L152 650H231L326 392L527 650H613L352 323L475 0H396L299 268L90 0H4Z" />
<glyph unicode="Y" d="M202 0L263 284L122 650H203L313 353L547 650H634L335 276L276 0H202Z" />
<glyph unicode="Z" d="M22 0L34 58L479 580H161L176 650H594L582 592L138 70H471L456 0H22Z" />
<glyph unicode="[" d="M59 -210L255 710H570L557 648H314L145 -148H388L374 -210H59Z" />
<glyph unicode="\" d="M384 -60L164 710H234L454 -60H384Z" />
<glyph unicode="]" d="M16 -210L29 -148H272L441 648H198L212 710H527L331 -210H16Z" />
<glyph unicode="^" d="M57 275L342 636H406L537 275H468L365 562L140 275H57Z" />
<glyph unicode="_" d="M-79 -138L-65 -72H515L501 -138H-79Z" />
<glyph unicode="`" d="M402 554L264 704L327 753L441 584L402 554Z" />
<glyph unicode="a" d="M205 -12Q129 -12 87 21T44 114Q44 274 240 274H431L435 295Q437 308 439 319T441 340Q441 380 415 397T327 414Q238 414 154 376L132 438Q229 482 337 482Q514 482 514 357Q514 344 513 331T508 302L444 0H390L392 48Q346 17 300 3T205
-12ZM220 56Q269 56 313 70T396 113L417 210H231Q176 210 147 188T118 121Q118 56 220 56Z" />
<glyph unicode="b" d="M277 -12Q178 -12 106 55L85 0H31L182 710H254L194 430Q275 482 353 482Q436 482 482 435T528 301Q528 235 509 178T456 79T376 12T277 -12ZM266 56Q320 56 362 87T430 173T455 295Q455 352 426 383T340 414Q301 414 259 400T179 359L126
110Q154 85 191 71T266 56Z" />
<glyph unicode="c" d="M297 -12Q191 -12 131 39T71 182Q71 270 108 337T210 443T360 482Q465 482 537 429L501 372Q470 394 436 404T362 414Q298 414 249 385T172 303T144 183Q144 122 183 89T295 56Q338 56 376 67T454 101L481 40Q389 -12 297 -12Z" />
<glyph unicode="d" d="M226 -12Q144 -12 98 36T51 169Q51 235 70 292T123 391T203 458T302 482Q397 482 467 421L528 710H600L449 0H395L398 48Q310 -12 226 -12ZM239 56Q278 56 321 71T401 112L453 359Q426 385 389 399T313 414Q260 414 217 383T149 297T124
175Q124 118 153 87T239 56Z" />
<glyph unicode="e" d="M279 -12Q172 -12 112 39T51 182Q51 267 88 335T189 442T333 482Q428 482 480 435T533 304Q533 282 529 257T519 210H125V185Q125 56 286 56Q327 56 366 67T449 101L475 41Q379 -12 279 -12ZM140 274H462V295Q462 353 429 383T330 414Q265
414 215 377T140 274Z" />
<glyph unicode="f" d="M182 0L268 404H113L127 470H282L298 547Q316 635 371 678T516 722Q594 722 652 688L620 627Q597 641 570 647T515 654Q393 654 367 532L354 470H554L540 404H340L254 0H182Z" />
<glyph unicode="g" d="M184 -222Q81 -222 2 -175L33 -112Q98 -154 185 -154Q345 -154 375 -11L388 51Q348 26 307 12T227 -2Q145 -2 99 45T52 174Q52 239 71 294T124 392T204 458T303 482Q402 482 474 415L495 470H549L444 -25Q424 -122 358 -172T184 -222ZM240
66Q280 66 323 81T403 123L453 360Q426 385 389 399T314 414Q261 414 218 383T150 298T125 180Q125 127 154 97T240 66Z" />
<glyph unicode="h" d="M39 0L190 710H262L202 430Q282 482 372 482Q443 482 480 450T517 359Q517 343 515 328T511 301L447 0H375L438 297Q440 308 442 320T444 345Q444 381 424 397T358 414Q312 414 268 399T187 358L111 0H39Z" />
<glyph unicode="i" d="M204 0L290 404H90L104 470H376L290 66H490L476 0H204ZM622 584Q594 584 575 602T556 647Q556 679 577 700T628 722Q657 722 675 704T694 659Q694 628 673 606T622 584Z" />
<glyph unicode="j" d="M126 -222Q31 -222 -37 -176L-3 -114Q51 -154 127 -154Q186 -154 225 -122T277 -30L369 404H170L184 470H455L345 -46Q327 -132 271 -177T126 -222ZM445 584Q417 584 398 602T379 647Q379 679 400 700T451 722Q480 722 498 704T517 659Q517
628 496 606T445 584Z" />
<glyph unicode="k" d="M47 0L198 710H270L169 234L481 470H586L338 283L489 0H408L281 241L149 141L119 0H47Z" />
<glyph unicode="l" d="M361 -12Q211 -12 211 111Q211 128 213 143T217 169L318 644H118L132 710H404L290 173Q288 163 286 151T284 125Q284 89 304 73T367 56Q428 56 491 86L507 21Q472 5 437 -3T361 -12Z" />
<glyph unicode="m" d="M4 0L104 470H153L151 433Q181 458 211 470T270 482Q302 482 323 469T352 433Q384 457 414 469T473 482Q514 482 537 460T561 398Q561 387 557 367L479 0H410L486 359Q488 367 488 373T489 385Q489 418 449 418Q402 418 356 377L276 0H207L283
359Q285 367 285 373T286 385Q286 418 246 418Q224 418 200 408T153 378L73 0H4Z" />
<glyph unicode="n" d="M39 0L139 470H193L190 422Q234 452 278 467T372 482Q443 482 480 450T517 359Q517 343 515 328T511 301L447 0H375L438 297Q440 308 442 320T444 345Q444 381 424 397T358 414Q312 414 268 399T187 358L111 0H39Z" />
<glyph unicode="o" d="M254 -12Q157 -12 102 39T46 180Q46 266 83 334T183 442T326 482Q423 482 478 431T534 290Q534 205 497 137T397 28T254 -12ZM256 56Q314 56 360 86T434 170T461 288Q461 350 426 382T324 414Q266 414 220 384T146 301T119 182Q119 121 154
89T256 56Z" />
<glyph unicode="p" d="M-14 -210L131 470H185L182 422Q270 482 354 482Q437 482 483 435T529 301Q529 235 510 178T457 79T377 12T278 -12Q183 -12 113 49L58 -210H-14ZM267 56Q321 56 363 87T431 173T456 295Q456 352 427 383T341 414Q302 414 259 399T179 358L127
111Q154 86 191 71T267 56Z" />
<glyph unicode="q" d="M332 -210L385 40Q304 -12 226 -12Q144 -12 98 36T51 169Q51 235 70 292T123 391T203 458T302 482Q401 482 474 415L495 470H549L404 -210H332ZM239 56Q278 56 321 71T400 111L453 360Q425 385 388 399T313 414Q260 414 217 383T149 297T124
175Q124 118 153 87T239 56Z" />
<glyph unicode="r" d="M74 0L174 470H232L224 389Q325 482 440 482Q510 482 545 450L507 391Q476 413 431 413Q312 413 209 299L146 0H74Z" />
<glyph unicode="s" d="M246 -12Q122 -12 36 47L70 108Q148 56 257 56Q330 56 369 79T409 145Q409 168 393 180T336 197L233 211Q110 227 110 318Q110 395 168 438T331 482Q435 482 522 433L491 370Q455 392 412 403T321 414Q184 414 184 331Q184 309 201 297T258
280L360 266Q483 248 483 158Q483 78 421 33T246 -12Z" />
<glyph unicode="t" d="M337 -12Q187 -12 187 111Q187 128 189 143T193 169L243 404H88L102 470H257L289 622L369 662L329 470H529L515 404H315L266 173Q264 163 262 151T260 125Q260 89 280 73T343 56Q404 56 467 86L483 21Q448 5 413 -3T337 -12Z" />
<glyph unicode="u" d="M208 -12Q138 -12 101 20T63 111Q63 128 65 143T69 169L133 470H205L142 173Q140 163 138 151T136 125Q136 89 156 73T222 56Q269 56 313 71T393 112L469 470H541L441 0H387L390 48Q347 18 303 3T208 -12Z" />
<glyph unicode="v" d="M197 0L107 470H181L254 76L495 470H573L283 0H197Z" />
<glyph unicode="w" d="M74 0L65 470H133L138 88L294 421H365L378 88L545 470H615L406 0H327L313 334L157 0H74Z" />
<glyph unicode="x" d="M9 0L249 246L121 470H200L304 288L479 470H570L336 231L468 0H389L282 188L100 0H9Z" />
<glyph unicode="y" d="M37 -222Q0 -222 -26 -215T-77 -191L-44 -130Q-9 -154 37 -154Q81 -154 112 -132T178 -52L207 -4L108 470H183L260 82L496 470H574L234 -88Q203 -139 175 -168T114 -209T37 -222Z" />
<glyph unicode="z" d="M31 0L43 56L423 404H127L141 470H547L535 414L155 66H461L447 0H31Z" />
<glyph unicode="{" d="M333 -210Q250 -210 210 -179T170 -84Q170 -52 178 -19T197 47Q206 76 213 104T221 156Q221 190 202 204T140 219H83L96 281H148Q202 281 233 309T277 398Q280 413 282 429T285 461Q287 478 289 497T296 537Q315 625 368 667T523 710H592L579
648H535Q462 648 421 617T365 520Q363 509 360 490T355 448Q354 432 351 415T346 385Q335 327 306 295T230 250V246Q259 237 275 214T292 152Q292 119 284 89T266 30Q257 5 250 -20T243 -69Q243 -110 271 -129T360 -148H410L396 -210H333Z" />
<glyph unicode="|" d="M151 -250L363 750H435L223 -250H151Z" />
<glyph unicode="}" d="M-6 -210L7 -148H51Q124 -148 166 -117T221 -20Q223 -9 226 10T231 52Q233 69 235 85T240 115Q251 173 280 205T356 250V254Q328 263 311 286T294 348Q294 381 302 411T320 470Q329 496 336 520T343 569Q343 610 315 629T226 648H176L190
710H253Q336 710 376 679T416 584Q416 552 408 519T389 453Q380 424 373 396T365 344Q365 310 384 296T446 281H503L490 219H438Q384 219 354 192T309 102Q306 87 305 72T301 39Q300 22 298 3T290 -37Q271 -125 218 -167T63 -210H-6Z" />
<glyph unicode="~" d="M37 173Q65 287 108 331T208 376Q240 376 266 359T326 297Q350 266 364 254T395 242Q427 242 451 273T495 380L560 377Q532 263 489 219T389 174Q358 174 331 192T271 253Q247 285 233 296T202 308Q170 308 146 277T102 170L37 173Z" />
<glyph unicode="&#xa0;" />
<glyph unicode="&#xa1;" d="M301 252L274 -136L265 -180H139L148 -136L285 252H301ZM333 482Q361 482 379 465T397 418Q397 387 376 366T323 344Q295 344 277 362T259 408Q259 439 280 460T333 482Z" />
<glyph unicode="&#xa2;" d="M227 -35L256 68Q170 80 123 130T76 261Q76 348 112 415T213 523T362 565L377 665H453L424 562Q499 553 558 511L523 452Q496 470 469 480T409 493L333 136Q371 139 404 149T475 179L502 115Q453 90 410 79T318 65L303 -35H227ZM271
137L347 494Q257 486 204 423T151 261Q151 152 271 137Z" />
<glyph unicode="&#xa3;" d="M17 0L33 76Q110 113 150 165T190 281H77L91 349H177Q173 366 169 383T165 423Q165 528 231 585T419 642Q517 642 584 593L546 532Q493 572 413 572Q330 572 285 536T239 432Q239 410 243 391T255 349H482L468 281H263Q257 207 227
158T131 68H477L462 0H17Z" />
<glyph unicode="&#xa4;" d="M60 62L12 120L147 223Q133 254 133 291Q133 329 146 363T183 423L100 514L160 564L231 462Q252 474 277 481T328 488Q389 488 429 454L554 568L602 510L467 407Q481 376 481 339Q481 301 468 267T431 207L514 116L454 66L383 168Q362
156 337 149T286 142Q225 142 185 176L60 62ZM287 210Q339 210 374 247T409 339Q409 376 387 398T327 420Q275 420 240 383T205 291Q205 254 227 232T287 210Z" />
<glyph unicode="&#xa5;" d="M200 0L225 119H39L53 183H239L258 273H72L86 337H265L126 630H212L323 394L532 630H624L363 337H532L518 273H332L313 183H499L485 119H299L274 0H200Z" />
<glyph unicode="&#xa6;" d="M289 400L363 750H435L361 400H289ZM151 -250L225 100H297L223 -250H151Z" />
<glyph unicode="&#xa7;" d="M218 -130Q108 -130 24 -71L62 -13Q96 -38 136 -50T226 -63Q298 -63 338 -38T379 31Q379 57 361 74T302 98L192 118Q132 129 100 161T67 241Q67 297 98 335T191 391V393Q165 410 152 435T139 491Q139 571 201 616T373 662Q484 662 568
603L529 545Q495 571 455 583T366 595Q293 595 253 570T212 501Q212 449 290 435L400 415Q459 405 491 373T524 291Q524 236 493 198T402 142V139Q452 104 452 41Q452 -38 390 -84T218 -130ZM301 172Q371 176 409 204T448 279Q448 306 430 323T372 347L296 360Q224
358 184 330T143 254Q143 226 162 210T221 186L301 172Z" />
<glyph unicode="&#xa8;" d="M268 587Q241 587 223 604T205 647Q205 677 225 698T274 719Q301 719 319 702T337 659Q337 629 317 608T268 587ZM484 587Q457 587 439 604T421 647Q421 677 441 698T490 719Q517 719 535 702T553 659Q553 629 533 608T484 587Z" />
<glyph unicode="&#xa9;" d="M280 159Q225 159 195 189T164 275Q164 338 187 387T252 463T345 491Q376 491 398 482T439 452L402 410Q390 424 375 430T340 437Q288 437 254 394T220 282Q220 213 287 213Q310 213 330 222T372 248L399 206Q369 181 341 170T280 159ZM247
18Q143 18 86 77T28 238Q28 305 50 374T115 501T222 596T372 632Q476 632 533 573T591 411Q591 345 569 276T504 149T396 54T247 18ZM251 70Q323 70 376 101T465 184T517 294T535 408Q535 489 492 534T367 580Q295 580 242 549T154 466T101 356T84 243Q84 161 127
116T251 70Z" />
<glyph unicode="&#xaa;" d="M278 275Q216 275 182 301T148 381Q148 438 186 469T301 501H447L450 515Q452 522 453 530T454 547Q454 576 434 589T370 603Q302 603 235 571L215 626Q255 644 296 653T380 662Q520 662 520 563Q520 542 515 519L465 284H418L420 324Q350
275 278 275ZM89 113L102 173H442L429 113H89ZM292 334Q363 334 421 374L436 447H295Q215 447 215 386Q215 360 234 347T292 334Z" />
<glyph unicode="&#xab;" d="M438 58L306 210L316 264L505 412L535 377L395 229L473 83L438 58ZM203 58L71 210L81 264L270 412L300 377L160 229L238 83L203 58Z" />
<glyph unicode="&#xac;" d="M410 75L459 307H65L79 373H539L476 75H410Z" />
<glyph unicode="&#xae;" d="M167 166L235 485H353Q396 485 420 465T444 406Q444 361 422 331T361 290L407 166H348L308 286H248L222 166H167ZM259 338H321Q388 338 388 400Q388 433 339 433H279L259 338ZM247 18Q143 18 86 77T28 238Q28 305 50 374T115 501T222
596T372 632Q476 632 533 573T591 411Q591 345 569 276T504 149T396 54T247 18ZM251 70Q323 70 376 101T465 184T517 294T535 408Q535 489 492 534T367 580Q295 580 242 549T154 466T101 356T84 243Q84 161 127 116T251 70Z" />
<glyph unicode="&#xaf;" d="M237 620L251 686H521L507 620H237Z" />
<glyph unicode="&#xb0;" d="M336 402Q274 402 236 437T197 531Q197 584 222 627T289 696T383 722Q446 722 484 687T523 593Q523 540 498 497T431 428T336 402ZM341 466Q389 466 422 501T455 585Q455 618 435 638T379 658Q331 658 298 624T265 539Q265 506 286
486T341 466Z" />
<glyph unicode="&#xb1;" d="M235 131L276 323H79L93 389H290L331 581H397L356 389H553L539 323H342L301 131H235ZM10 0L24 66H484L470 0H10Z" />
<glyph unicode="&#xb2;" d="M126 306L138 362Q151 422 174 460T234 521T326 555L400 570Q444 579 463 596T483 643Q483 702 388 702Q347 702 312 691T239 655L207 713Q251 742 295 755T393 768Q472 768 513 738T554 649Q554 588 519 553T408 502L334 487Q277 476
252 452T212 371H498L484 306H126Z" />
<glyph unicode="&#xb3;" d="M122 294L132 359Q246 359 314 369T413 401T444 461Q444 483 423 492T352 502H245L258 566H327Q396 566 430 586T465 646Q465 702 375 702Q295 702 230 662L204 721Q246 745 289 756T384 768Q458 768 498 740T539 660Q539 576 453 548V546Q517
528 517 469Q517 405 479 367T354 311T122 294Z" />
<glyph unicode="&#xb4;" d="M328 554L292 596L458 753L511 692L328 554Z" />
<glyph unicode="&#xb5;" d="M-9 -210L136 470H208L145 173Q143 163 141 151T139 125Q139 89 159 73T225 56Q272 56 316 71T396 112L472 470H544L444 0H391L393 49Q307 -12 211 -12Q128 -12 102 39L74 -159L63 -210H-9Z" />
<glyph unicode="&#xb6;" d="M189 -120L270 264Q173 264 129 301T85 421Q85 523 146 586T321 650H592L429 -120H359L507 580H407L259 -120H189Z" />
<glyph unicode="&#xb7;" d="M294 205Q263 205 244 224T225 273Q225 304 247 329T305 355Q336 355 355 336T374 287Q374 256 352 231T294 205Z" />
<glyph unicode="&#xb8;" d="M189 -222Q155 -222 129 -216T83 -199L106 -150Q123 -158 145 -164T193 -170Q254 -170 254 -132Q254 -121 244 -116T209 -111H157L219 0H270L230 -70Q272 -70 294 -84T316 -128Q316 -174 284 -198T189 -222Z" />
<glyph unicode="&#xb9;" d="M124 306L138 371H289L350 661L202 597L182 645L394 762H444L361 371H512L498 306H124Z" />
<glyph unicode="&#xba;" d="M311 275Q235 275 191 315T147 426Q147 493 176 546T255 631T369 662Q446 662 489 622T533 511Q533 444 504 391T425 306T311 275ZM76 113L89 173H465L452 113H76ZM315 335Q359 335 393 358T448 420T468 511Q468 555 442 578T365 602Q321
602 287 580T232 518T212 427Q212 383 239 359T315 335Z" />
<glyph unicode="&#xbb;" d="M142 412L274 260L264 206L75 58L45 93L185 241L107 387L142 412ZM377 412L509 260L499 206L310 58L280 93L420 241L342 387L377 412Z" />
<glyph unicode="&#xbc;" d="M50 354L63 413H150L179 552L98 516L79 561L217 636H267L220 413H307L294 354H50ZM408 364L379 395L613 634L660 586L408 364ZM41 -4L-6 44L246 266L275 235L41 -4ZM406 0L418 57H246L256 105L432 276H513L348 116H430L439 157L515
189L500 116H552L539 57H487L475 0H406Z" />
<glyph unicode="&#xbd;" d="M50 354L63 413H150L179 552L98 516L79 561L217 636H267L220 413H307L294 354H50ZM388 364L359 395L593 634L640 586L388 364ZM21 -4L-26 44L226 266L255 235L21 -4ZM273 0L284 52Q295 102 321 127T398 164L449 175Q469 180 477 186T485
203Q485 217 475 223T441 229Q389 229 349 203L327 258Q357 274 385 281T447 288Q553 288 553 208Q553 169 531 148T458 115L407 104Q381 98 371 90T355 59H524L511 0H273Z" />
<glyph unicode="&#xbe;" d="M42 342L50 401Q157 401 197 411T237 448Q237 459 226 462T182 466H117L129 521H177Q217 521 234 529T251 557Q251 583 206 583Q157 583 113 561L93 616Q149 642 212 642Q265 642 293 624T322 572Q322 522 270 506V504Q306 491 306
455Q306 413 281 388T198 353T42 342ZM398 364L369 395L603 634L650 586L398 364ZM31 -4L-16 44L236 266L265 235L31 -4ZM406 0L418 57H246L256 105L432 276H513L348 116H430L439 157L515 189L500 116H552L539 57H487L475 0H406Z" />
<glyph unicode="&#xbf;" d="M369 252Q369 168 344 128T260 78L196 67Q141 57 116 33T91 -35Q91 -77 125 -99T226 -122Q276 -122 320 -108T412 -62L447 -123Q391 -159 338 -175T222 -192Q123 -192 70 -152T16 -36Q16 38 55 79T180 135L244 146Q277 152 290 175T304
252H369ZM372 482Q400 482 418 465T436 418Q436 387 415 366T362 344Q334 344 316 362T298 408Q298 439 319 460T372 482Z" />
<glyph unicode="&#xc0;" d="M-21 0L334 650H422L501 0H427L407 180H155L57 0H-21ZM192 250H399L362 565L192 250ZM700 719L546 835L598 893L735 759L700 719Z" />
<glyph unicode="&#xc1;" d="M-21 0L334 650H422L501 0H427L407 180H155L57 0H-21ZM192 250H399L362 565L192 250ZM356 719L327 766L500 893L543 827L356 719Z" />
<glyph unicode="&#xc2;" d="M-21 0L334 650H422L501 0H427L407 180H155L57 0H-21ZM192 250H399L362 565L192 250ZM522 719L493 767L673 890H701L829 761L792 719L680 815L522 719Z" />
<glyph unicode="&#xc3;" d="M-21 0L334 650H422L501 0H427L407 180H155L57 0H-21ZM192 250H399L362 565L192 250ZM550 737L495 747Q513 803 541 833T610 864Q633 864 650 857T689 831Q713 811 729 811Q743 811 758 824T785 872L840 862Q822 806 794 776T725 745Q703
745 686 752T646 778Q622 798 606 798Q592 798 577 785T550 737Z" />
<glyph unicode="&#xc4;" d="M-21 0L334 650H422L501 0H427L407 180H155L57 0H-21ZM192 250H399L362 565L192 250ZM300 736Q273 736 255 753T237 796Q237 826 257 847T306 868Q333 868 351 851T369 808Q369 778 349 757T300 736ZM516 736Q489 736 471 753T453 796Q453
826 473 847T522 868Q549 868 567 851T585 808Q585 778 565 757T516 736Z" />
<glyph unicode="&#xc5;" d="M-21 0L334 650H422L501 0H427L407 180H155L57 0H-21ZM192 250H399L362 565L192 250ZM401 690Q357 690 328 718T298 789Q298 824 315 853T360 899T421 916Q465 916 494 888T524 817Q524 782 507 753T463 707T401 690ZM401 747Q428 747
446 767T464 816Q464 835 452 847T421 859Q394 859 376 839T358 790Q358 771 370 759T401 747Z" />
<glyph unicode="&#xc6;" d="M-47 0L335 650H654L640 581H440L394 365H565L550 297H380L332 69H531L516 0H246L279 154H119L30 0H-47ZM159 223H293L369 581H367L159 223Z" />
<glyph unicode="&#xc7;" d="M297 -12Q188 -12 131 47T73 218Q73 275 85 336T122 456T186 560T280 634T406 662Q464 662 506 646T582 593L534 538Q484 591 405 591Q349 591 307 567T234 503T185 413T157 314T148 219Q148 59 299 59Q341 59 378 73T458 121L497 63Q446
24 399 6T297 -12ZM215 -222Q181 -222 155 -216T109 -199L132 -150Q149 -158 171 -164T219 -170Q280 -170 280 -132Q280 -121 270 -116T235 -111H183L245 0H296L256 -70Q298 -70 320 -84T342 -128Q342 -174 310 -198T215 -222Z" />
<glyph unicode="&#xc8;" d="M58 0L196 650H598L583 580H255L210 366H490L475 296H195L147 70H475L460 0H58ZM463 719L309 835L361 893L498 759L463 719Z" />
<glyph unicode="&#xc9;" d="M58 0L196 650H598L583 580H255L210 366H490L475 296H195L147 70H475L460 0H58ZM375 719L346 766L519 893L562 827L375 719Z" />
<glyph unicode="&#xca;" d="M58 0L196 650H598L583 580H255L210 366H490L475 296H195L147 70H475L460 0H58ZM285 719L256 767L436 890H464L592 761L555 719L443 815L285 719Z" />
<glyph unicode="&#xcb;" d="M58 0L196 650H598L583 580H255L210 366H490L475 296H195L147 70H475L460 0H58ZM319 736Q292 736 274 753T256 796Q256 826 276 847T325 868Q352 868 370 851T388 808Q388 778 368 757T319 736ZM535 736Q508 736 490 753T472 796Q472
826 492 847T541 868Q568 868 586 851T604 808Q604 778 584 757T535 736Z" />
<glyph unicode="&#xcc;" d="M32 0L47 70H218L326 580H155L170 650H586L571 580H400L292 70H463L448 0H32ZM700 719L546 835L598 893L735 759L700 719Z" />
<glyph unicode="&#xcd;" d="M32 0L47 70H218L326 580H155L170 650H586L571 580H400L292 70H463L448 0H32ZM356 719L327 766L500 893L543 827L356 719Z" />
<glyph unicode="&#xce;" d="M32 0L47 70H218L326 580H155L170 650H586L571 580H400L292 70H463L448 0H32ZM522 719L493 767L673 890H701L829 761L792 719L680 815L522 719Z" />
<glyph unicode="&#xcf;" d="M32 0L47 70H218L326 580H155L170 650H586L571 580H400L292 70H463L448 0H32ZM300 736Q273 736 255 753T237 796Q237 826 257 847T306 868Q333 868 351 851T369 808Q369 778 349 757T300 736ZM516 736Q489 736 471 753T453 796Q453
826 473 847T522 868Q549 868 567 851T585 808Q585 778 565 757T516 736Z" />
<glyph unicode="&#xd0;" d="M27 294L40 356H352L339 294H27ZM57 0L195 650H346Q462 650 521 595T580 429Q580 354 562 278T503 139T395 38T230 0H57ZM146 70H229Q308 70 361 102T445 186T491 300T505 422Q505 504 463 542T332 580H254L146 70Z" />
<glyph unicode="&#xd1;" d="M25 0L163 650H255L413 134L523 650H593L455 0H381L212 553L95 0H25ZM550 737L495 747Q513 803 541 833T610 864Q633 864 650 857T689 831Q713 811 729 811Q743 811 758 824T785 872L840 862Q822 806 794 776T725 745Q703 745 686 752T646
778Q622 798 606 798Q592 798 577 785T550 737Z" />
<glyph unicode="&#xd2;" d="M253 -12Q51 -12 51 204Q51 259 62 321T96 443T156 553T245 632T365 662Q567 662 567 446Q567 391 556 329T522 207T462 97T373 18T253 -12ZM254 59Q306 59 345 85T413 153T458 247T484 349T492 442Q492 591 364 591Q312 591 273 565T205
497T160 403T134 301T126 208Q126 59 254 59ZM700 719L546 835L598 893L735 759L700 719Z" />
<glyph unicode="&#xd3;" d="M253 -12Q51 -12 51 204Q51 259 62 321T96 443T156 553T245 632T365 662Q567 662 567 446Q567 391 556 329T522 207T462 97T373 18T253 -12ZM254 59Q306 59 345 85T413 153T458 247T484 349T492 442Q492 591 364 591Q312 591 273 565T205
497T160 403T134 301T126 208Q126 59 254 59ZM356 719L327 766L500 893L543 827L356 719Z" />
<glyph unicode="&#xd4;" d="M253 -12Q51 -12 51 204Q51 259 62 321T96 443T156 553T245 632T365 662Q567 662 567 446Q567 391 556 329T522 207T462 97T373 18T253 -12ZM254 59Q306 59 345 85T413 153T458 247T484 349T492 442Q492 591 364 591Q312 591 273 565T205
497T160 403T134 301T126 208Q126 59 254 59ZM522 719L493 767L673 890H701L829 761L792 719L680 815L522 719Z" />
<glyph unicode="&#xd5;" d="M253 -12Q51 -12 51 204Q51 259 62 321T96 443T156 553T245 632T365 662Q567 662 567 446Q567 391 556 329T522 207T462 97T373 18T253 -12ZM254 59Q306 59 345 85T413 153T458 247T484 349T492 442Q492 591 364 591Q312 591 273 565T205
497T160 403T134 301T126 208Q126 59 254 59ZM550 737L495 747Q513 803 541 833T610 864Q633 864 650 857T689 831Q713 811 729 811Q743 811 758 824T785 872L840 862Q822 806 794 776T725 745Q703 745 686 752T646 778Q622 798 606 798Q592 798 577 785T550 737Z"
/>
<glyph unicode="&#xd6;" d="M253 -12Q51 -12 51 204Q51 259 62 321T96 443T156 553T245 632T365 662Q567 662 567 446Q567 391 556 329T522 207T462 97T373 18T253 -12ZM254 59Q306 59 345 85T413 153T458 247T484 349T492 442Q492 591 364 591Q312 591 273 565T205
497T160 403T134 301T126 208Q126 59 254 59ZM300 736Q273 736 255 753T237 796Q237 826 257 847T306 868Q333 868 351 851T369 808Q369 778 349 757T300 736ZM516 736Q489 736 471 753T453 796Q453 826 473 847T522 868Q549 868 567 851T585 808Q585 778 565 757T516
736Z" />
<glyph unicode="&#xd7;" d="M91 62L51 113L253 279L122 446L173 488L304 321L506 488L546 437L344 271L475 104L424 62L293 229L91 62Z" />
<glyph unicode="&#xd8;" d="M253 -12Q51 -12 51 204Q51 259 62 321T96 443T156 553T245 632T365 662Q567 662 567 446Q567 391 556 329T522 207T462 97T373 18T253 -12ZM254 59Q306 59 345 85T413 153T458 247T484 349T492 442Q492 591 364 591Q312 591 273 565T205
497T160 403T134 301T126 208Q126 59 254 59ZM12 -32L-29 7L606 682L647 643L12 -32Z" />
<glyph unicode="&#xd9;" d="M246 -12Q157 -12 110 29T62 147Q62 161 63 175T68 205L163 650H237L144 211Q141 198 140 185T138 161Q138 59 254 59Q396 59 428 211L521 650H593L497 197Q475 95 411 42T246 -12ZM700 719L546 835L598 893L735 759L700 719Z" />
<glyph unicode="&#xda;" d="M246 -12Q157 -12 110 29T62 147Q62 161 63 175T68 205L163 650H237L144 211Q141 198 140 185T138 161Q138 59 254 59Q396 59 428 211L521 650H593L497 197Q475 95 411 42T246 -12ZM356 719L327 766L500 893L543 827L356 719Z" />
<glyph unicode="&#xdb;" d="M246 -12Q157 -12 110 29T62 147Q62 161 63 175T68 205L163 650H237L144 211Q141 198 140 185T138 161Q138 59 254 59Q396 59 428 211L521 650H593L497 197Q475 95 411 42T246 -12ZM522 719L493 767L673 890H701L829 761L792 719L680
815L522 719Z" />
<glyph unicode="&#xdc;" d="M246 -12Q157 -12 110 29T62 147Q62 161 63 175T68 205L163 650H237L144 211Q141 198 140 185T138 161Q138 59 254 59Q396 59 428 211L521 650H593L497 197Q475 95 411 42T246 -12ZM300 736Q273 736 255 753T237 796Q237 826 257 847T306
868Q333 868 351 851T369 808Q369 778 349 757T300 736ZM516 736Q489 736 471 753T453 796Q453 826 473 847T522 868Q549 868 567 851T585 808Q585 778 565 757T516 736Z" />
<glyph unicode="&#xdd;" d="M202 0L263 284L122 650H203L313 353L547 650H634L335 276L276 0H202ZM611 719L582 766L755 893L798 827L611 719Z" />
<glyph unicode="&#xde;" d="M40 0L178 650H252L228 537H383Q469 537 512 501T556 396Q556 285 494 225T318 165H149L114 0H40ZM164 235H318Q480 235 480 387Q480 428 452 447T363 467H213L164 235Z" />
<glyph unicode="&#xdf;" d="M324 -12Q286 -12 253 -2T193 25L224 88Q249 72 272 64T324 56Q380 56 412 80T444 148Q444 171 431 188T386 227Q348 253 332 278T315 339Q315 374 330 405T388 484Q417 516 429 540T441 590Q441 654 351 654Q294 654 258 620T208 518L98
0H26L140 537Q159 627 215 674T358 722Q432 722 473 689T514 596Q514 556 498 523T445 447Q414 411 402 390T390 346Q390 327 402 312T445 277Q485 251 501 223T518 154Q518 78 466 33T324 -12Z" />
<glyph unicode="&#xe0;" d="M205 -12Q129 -12 87 21T44 114Q44 274 240 274H431L435 295Q437 308 439 319T441 340Q441 380 415 397T327 414Q238 414 154 376L132 438Q229 482 337 482Q514 482 514 357Q514 344 513 331T508 302L444 0H390L392 48Q346 17 300 3T205
-12ZM220 56Q269 56 313 70T396 113L417 210H231Q176 210 147 188T118 121Q118 56 220 56ZM653 554L515 704L578 753L692 584L653 554Z" />
<glyph unicode="&#xe1;" d="M205 -12Q129 -12 87 21T44 114Q44 274 240 274H431L435 295Q437 308 439 319T441 340Q441 380 415 397T327 414Q238 414 154 376L132 438Q229 482 337 482Q514 482 514 357Q514 344 513 331T508 302L444 0H390L392 48Q346 17 300 3T205
-12ZM220 56Q269 56 313 70T396 113L417 210H231Q176 210 147 188T118 121Q118 56 220 56ZM580 554L544 596L710 753L763 692L580 554Z" />
<glyph unicode="&#xe2;" d="M205 -12Q129 -12 87 21T44 114Q44 274 240 274H431L435 295Q437 308 439 319T441 340Q441 380 415 397T327 414Q238 414 154 376L132 438Q229 482 337 482Q514 482 514 357Q514 344 513 331T508 302L444 0H390L392 48Q346 17 300 3T205
-12ZM220 56Q269 56 313 70T396 113L417 210H231Q176 210 147 188T118 121Q118 56 220 56ZM486 554L451 597L635 753H663L781 585L738 554L639 669L486 554Z" />
<glyph unicode="&#xe3;" d="M205 -12Q129 -12 87 21T44 114Q44 274 240 274H431L435 295Q437 308 439 319T441 340Q441 380 415 397T327 414Q238 414 154 376L132 438Q229 482 337 482Q514 482 514 357Q514 344 513 331T508 302L444 0H390L392 48Q346 17 300 3T205
-12ZM220 56Q269 56 313 70T396 113L417 210H231Q176 210 147 188T118 121Q118 56 220 56ZM512 576L458 586Q476 650 505 684T574 718Q597 718 614 710T654 677Q668 662 675 657T693 652Q709 652 723 668T751 728L805 718Q787 654 759 620T689 586Q667 586 650
594T609 627Q595 642 588 647T570 652Q554 652 540 636T512 576Z" />
<glyph unicode="&#xe4;" d="M205 -12Q129 -12 87 21T44 114Q44 274 240 274H431L435 295Q437 308 439 319T441 340Q441 380 415 397T327 414Q238 414 154 376L132 438Q229 482 337 482Q514 482 514 357Q514 344 513 331T508 302L444 0H390L392 48Q346 17 300 3T205
-12ZM220 56Q269 56 313 70T396 113L417 210H231Q176 210 147 188T118 121Q118 56 220 56ZM520 587Q493 587 475 604T457 647Q457 677 477 698T526 719Q553 719 571 702T589 659Q589 629 569 608T520 587ZM736 587Q709 587 691 604T673 647Q673 677 693 698T742
719Q769 719 787 702T805 659Q805 629 785 608T736 587Z" />
<glyph unicode="&#xe5;" d="M205 -12Q129 -12 87 21T44 114Q44 274 240 274H431L435 295Q437 308 439 319T441 340Q441 380 415 397T327 414Q238 414 154 376L132 438Q229 482 337 482Q514 482 514 357Q514 344 513 331T508 302L444 0H390L392 48Q346 17 300 3T205
-12ZM220 56Q269 56 313 70T396 113L417 210H231Q176 210 147 188T118 121Q118 56 220 56ZM621 540Q577 540 548 568T518 639Q518 674 535 703T580 749T641 766Q685 766 714 738T744 667Q744 632 727 603T683 557T621 540ZM621 597Q648 597 666 617T684 666Q684
685 672 697T641 709Q614 709 596 689T578 640Q578 621 590 609T621 597Z" />
<glyph unicode="&#xe6;" d="M116 -12Q58 -12 25 20T-9 109Q-9 189 39 231T180 273H251Q256 301 258 317T261 343Q261 416 189 416Q140 416 87 383L60 441Q127 482 204 482Q304 482 317 403H319Q369 482 456 482Q514 482 544 446T575 339Q575 310 570 275T555 211H308Q305
193 304 178T302 150Q302 101 324 78T392 54Q446 54 498 88L524 29Q458 -12 381 -12Q287 -12 253 50Q190 -12 116 -12ZM133 54Q162 54 185 65T236 105Q233 123 233 143Q233 159 234 175T239 211H171Q119 211 91 186T62 115Q62 54 133 54ZM321 273H501Q503 289 504
303T506 329Q506 416 442 416Q403 416 372 380T321 273Z" />
<glyph unicode="&#xe7;" d="M297 -12Q191 -12 131 39T71 182Q71 270 108 337T210 443T360 482Q465 482 537 429L501 372Q470 394 436 404T362 414Q298 414 249 385T172 303T144 183Q144 122 183 89T295 56Q338 56 376 67T454 101L481 40Q389 -12 297 -12ZM211
-222Q177 -222 151 -216T105 -199L128 -150Q145 -158 167 -164T215 -170Q276 -170 276 -132Q276 -121 266 -116T231 -111H179L241 0H292L252 -70Q294 -70 316 -84T338 -128Q338 -174 306 -198T211 -222Z" />
<glyph unicode="&#xe8;" d="M279 -12Q172 -12 112 39T51 182Q51 267 88 335T189 442T333 482Q428 482 480 435T533 304Q533 282 529 257T519 210H125V185Q125 56 286 56Q327 56 366 67T449 101L475 41Q379 -12 279 -12ZM140 274H462V295Q462 353 429 383T330 414Q265
414 215 377T140 274ZM408 554L270 704L333 753L447 584L408 554Z" />
<glyph unicode="&#xe9;" d="M279 -12Q172 -12 112 39T51 182Q51 267 88 335T189 442T333 482Q428 482 480 435T533 304Q533 282 529 257T519 210H125V185Q125 56 286 56Q327 56 366 67T449 101L475 41Q379 -12 279 -12ZM140 274H462V295Q462 353 429 383T330 414Q265
414 215 377T140 274ZM335 554L299 596L465 753L518 692L335 554Z" />
<glyph unicode="&#xea;" d="M279 -12Q172 -12 112 39T51 182Q51 267 88 335T189 442T333 482Q428 482 480 435T533 304Q533 282 529 257T519 210H125V185Q125 56 286 56Q327 56 366 67T449 101L475 41Q379 -12 279 -12ZM140 274H462V295Q462 353 429 383T330 414Q265
414 215 377T140 274ZM241 554L206 597L390 753H418L536 585L493 554L394 669L241 554Z" />
<glyph unicode="&#xeb;" d="M279 -12Q172 -12 112 39T51 182Q51 267 88 335T189 442T333 482Q428 482 480 435T533 304Q533 282 529 257T519 210H125V185Q125 56 286 56Q327 56 366 67T449 101L475 41Q379 -12 279 -12ZM140 274H462V295Q462 353 429 383T330 414Q265
414 215 377T140 274ZM275 587Q248 587 230 604T212 647Q212 677 232 698T281 719Q308 719 326 702T344 659Q344 629 324 608T275 587ZM491 587Q464 587 446 604T428 647Q428 677 448 698T497 719Q524 719 542 702T560 659Q560 629 540 608T491 587Z" />
<glyph unicode="&#xec;" d="M204 0L290 404H90L104 470H376L290 66H490L476 0H204ZM647 554L509 704L572 753L686 584L647 554Z" />
<glyph unicode="&#xed;" d="M204 0L290 404H90L104 470H376L290 66H490L476 0H204ZM574 554L538 596L704 753L757 692L574 554Z" />
<glyph unicode="&#xee;" d="M204 0L290 404H90L104 470H376L290 66H490L476 0H204ZM480 554L445 597L629 753H657L775 585L732 554L633 669L480 554Z" />
<glyph unicode="&#xef;" d="M204 0L290 404H90L104 470H376L290 66H490L476 0H204ZM514 587Q487 587 469 604T451 647Q451 677 471 698T520 719Q547 719 565 702T583 659Q583 629 563 608T514 587ZM730 587Q703 587 685 604T667 647Q667 677 687 698T736 719Q763
719 781 702T799 659Q799 629 779 608T730 587Z" />
<glyph unicode="&#xf0;" d="M248 -12Q155 -12 100 40T44 180Q44 254 78 311T171 400T305 433Q405 433 463 366H465Q460 472 403 543L199 464L178 523L360 586Q298 638 204 657L225 721Q354 693 434 611L557 662L577 603L471 567Q538 473 538 349Q538 242 502 161T400
34T248 -12ZM252 56Q337 56 391 116T460 285Q437 326 401 346T315 366Q226 366 172 316T117 184Q117 124 152 90T252 56Z" />
<glyph unicode="&#xf1;" d="M39 0L139 470H193L190 422Q234 452 278 467T372 482Q443 482 480 450T517 359Q517 343 515 328T511 301L447 0H375L438 297Q440 308 442 320T444 345Q444 381 424 397T358 414Q312 414 268 399T187 358L111 0H39ZM270 576L216 586Q234
650 263 684T332 718Q355 718 372 710T412 677Q426 662 433 657T451 652Q467 652 481 668T509 728L563 718Q545 654 517 620T447 586Q425 586 408 594T367 627Q353 642 346 647T328 652Q312 652 298 636T270 576Z" />
<glyph unicode="&#xf2;" d="M254 -12Q157 -12 102 39T46 180Q46 266 83 334T183 442T326 482Q423 482 478 431T534 290Q534 205 497 137T397 28T254 -12ZM256 56Q314 56 360 86T434 170T461 288Q461 350 426 382T324 414Q266 414 220 384T146 301T119 182Q119
121 154 89T256 56ZM657 554L519 704L582 753L696 584L657 554Z" />
<glyph unicode="&#xf3;" d="M254 -12Q157 -12 102 39T46 180Q46 266 83 334T183 442T326 482Q423 482 478 431T534 290Q534 205 497 137T397 28T254 -12ZM256 56Q314 56 360 86T434 170T461 288Q461 350 426 382T324 414Q266 414 220 384T146 301T119 182Q119
121 154 89T256 56ZM328 554L292 596L458 753L511 692L328 554Z" />
<glyph unicode="&#xf4;" d="M254 -12Q157 -12 102 39T46 180Q46 266 83 334T183 442T326 482Q423 482 478 431T534 290Q534 205 497 137T397 28T254 -12ZM256 56Q314 56 360 86T434 170T461 288Q461 350 426 382T324 414Q266 414 220 384T146 301T119 182Q119
121 154 89T256 56ZM490 554L455 597L639 753H667L785 585L742 554L643 669L490 554Z" />
<glyph unicode="&#xf5;" d="M254 -12Q157 -12 102 39T46 180Q46 266 83 334T183 442T326 482Q423 482 478 431T534 290Q534 205 497 137T397 28T254 -12ZM256 56Q314 56 360 86T434 170T461 288Q461 350 426 382T324 414Q266 414 220 384T146 301T119 182Q119
121 154 89T256 56ZM260 576L206 586Q224 650 253 684T322 718Q345 718 362 710T402 677Q416 662 423 657T441 652Q457 652 471 668T499 728L553 718Q535 654 507 620T437 586Q415 586 398 594T357 627Q343 642 336 647T318 652Q302 652 288 636T260 576Z" />
<glyph unicode="&#xf6;" d="M254 -12Q157 -12 102 39T46 180Q46 266 83 334T183 442T326 482Q423 482 478 431T534 290Q534 205 497 137T397 28T254 -12ZM256 56Q314 56 360 86T434 170T461 288Q461 350 426 382T324 414Q266 414 220 384T146 301T119 182Q119
121 154 89T256 56ZM268 587Q241 587 223 604T205 647Q205 677 225 698T274 719Q301 719 319 702T337 659Q337 629 317 608T268 587ZM484 587Q457 587 439 604T421 647Q421 677 441 698T490 719Q517 719 535 702T553 659Q553 629 533 608T484 587Z" />
<glyph unicode="&#xf7;" d="M51 242L66 308H546L531 242H51ZM252 10Q227 10 210 26T192 67Q192 96 211 116T258 136Q284 136 301 120T318 79Q318 50 299 30T252 10ZM339 414Q314 414 297 430T279 471Q279 500 298 520T345 540Q371 540 388 524T405 483Q405 454
386 434T339 414Z" />
<glyph unicode="&#xf8;" d="M254 -12Q157 -12 102 39T46 180Q46 244 67 299T126 395T215 459T326 482Q423 482 478 431T534 290Q534 226 513 171T454 75T365 11T254 -12ZM256 56Q314 56 360 86T434 170T461 288Q461 350 426 382T324 414Q266 414 220 384T146 301T119
182Q119 121 154 89T256 56ZM36 -12L0 32L545 482L580 438L36 -12Z" />
<glyph unicode="&#xf9;" d="M208 -12Q138 -12 101 20T63 111Q63 128 65 143T69 169L133 470H205L142 173Q140 163 138 151T136 125Q136 89 156 73T222 56Q269 56 313 71T393 112L469 470H541L441 0H387L390 48Q347 18 303 3T208 -12ZM657 554L519 704L582 753L696
584L657 554Z" />
<glyph unicode="&#xfa;" d="M208 -12Q138 -12 101 20T63 111Q63 128 65 143T69 169L133 470H205L142 173Q140 163 138 151T136 125Q136 89 156 73T222 56Q269 56 313 71T393 112L469 470H541L441 0H387L390 48Q347 18 303 3T208 -12ZM328 554L292 596L458 753L511
692L328 554Z" />
<glyph unicode="&#xfb;" d="M208 -12Q138 -12 101 20T63 111Q63 128 65 143T69 169L133 470H205L142 173Q140 163 138 151T136 125Q136 89 156 73T222 56Q269 56 313 71T393 112L469 470H541L441 0H387L390 48Q347 18 303 3T208 -12ZM490 554L455 597L639 753H667L785
585L742 554L643 669L490 554Z" />
<glyph unicode="&#xfc;" d="M208 -12Q138 -12 101 20T63 111Q63 128 65 143T69 169L133 470H205L142 173Q140 163 138 151T136 125Q136 89 156 73T222 56Q269 56 313 71T393 112L469 470H541L441 0H387L390 48Q347 18 303 3T208 -12ZM268 587Q241 587 223 604T205
647Q205 677 225 698T274 719Q301 719 319 702T337 659Q337 629 317 608T268 587ZM484 587Q457 587 439 604T421 647Q421 677 441 698T490 719Q517 719 535 702T553 659Q553 629 533 608T484 587Z" />
<glyph unicode="&#xfd;" d="M37 -222Q0 -222 -26 -215T-77 -191L-44 -130Q-9 -154 37 -154Q81 -154 112 -132T178 -52L207 -4L108 470H183L260 82L496 470H574L234 -88Q203 -139 175 -168T114 -209T37 -222ZM583 554L547 596L713 753L766 692L583 554Z" />
<glyph unicode="&#xfe;" d="M-14 -210L182 710H254L194 430Q275 482 354 482Q437 482 483 435T529 301Q529 235 510 178T457 79T377 12T278 -12Q183 -12 113 49L58 -210H-14ZM267 56Q321 56 363 87T431 173T456 295Q456 352 427 383T341 414Q302 414 259 399T179
358L127 111Q154 86 191 71T267 56Z" />
<glyph unicode="&#xff;" d="M37 -222Q0 -222 -26 -215T-77 -191L-44 -130Q-9 -154 37 -154Q81 -154 112 -132T178 -52L207 -4L108 470H183L260 82L496 470H574L234 -88Q203 -139 175 -168T114 -209T37 -222ZM523 587Q496 587 478 604T460 647Q460 677 480 698T529
719Q556 719 574 702T592 659Q592 629 572 608T523 587ZM739 587Q712 587 694 604T676 647Q676 677 696 698T745 719Q772 719 790 702T808 659Q808 629 788 608T739 587Z" />
<glyph unicode="&#x2013;" d="M61 242L76 308H536L521 242H61Z" />
<glyph unicode="&#x2014;" d="M1 242L16 308H596L581 242H1Z" />
<glyph unicode="&#x2018;" d="M462 662L474 613Q422 601 382 565T326 480Q356 480 374 463T393 417Q393 385 372 360T312 335Q282 335 263 354T243 409Q243 446 260 486T307 562T377 624T462 662Z" />
<glyph unicode="&#x2019;" d="M230 335L218 384Q270 396 310 432T366 517Q336 517 318 534T299 580Q299 612 321 637T380 662Q410 662 429 643T449 588Q449 551 432 511T385 435T315 373T230 335Z" />
<glyph unicode="&#x201a;" d="M109 -189L97 -140Q149 -128 189 -92T245 -7Q215 -7 197 10T178 56Q178 88 200 113T259 138Q289 138 308 119T328 64Q328 27 311 -13T264 -89T194 -151T109 -189Z" />
<glyph unicode="&#x201c;" d="M339 662L351 613Q299 601 259 565T203 480Q233 480 251 463T270 417Q270 385 249 360T189 335Q159 335 140 354T120 409Q120 446 137 486T184 562T254 624T339 662ZM585 662L597 613Q545 601 505 565T449 480Q479 480 497 463T516
417Q516 385 495 360T435 335Q405 335 386 354T366 409Q366 446 383 486T430 562T500 624T585 662Z" />
<glyph unicode="&#x201d;" d="M354 335L342 384Q394 396 434 432T490 517Q460 517 442 534T423 580Q423 612 445 637T504 662Q534 662 553 643T573 588Q573 551 556 511T509 435T439 373T354 335ZM108 335L96 384Q148 396 188 432T244 517Q214 517 196 534T177
580Q177 612 199 637T258 662Q288 662 307 643T327 588Q327 551 310 511T263 435T193 373T108 335Z" />
<glyph unicode="&#x201e;" d="M232 -189L220 -140Q272 -128 312 -92T368 -7Q338 -7 320 10T301 56Q301 88 323 113T382 138Q412 138 431 119T451 64Q451 27 434 -13T387 -89T317 -151T232 -189ZM242 -189L230 -140Q282 -128 322 -92T378 -7Q348 -7 330 10T311
56Q311 88 333 113T392 138Q422 138 441 119T461 64Q461 27 444 -13T397 -89T327 -151T242 -189Z" />
<glyph unicode="&#x2022;" d="M288 145Q252 145 224 161T180 206T164 270Q164 309 184 342T237 395T310 415Q346 415 374 399T418 354T434 290Q434 251 414 218T361 165T288 145Z" />
<glyph unicode="&#x2039;" d="M355 58L160 211L170 265L420 411L444 373L258 229L384 91L355 58Z" />
<glyph unicode="&#x203a;" d="M225 412L420 259L410 205L160 59L136 97L322 241L196 379L225 412Z" />
</font>
</defs>
</svg>
